<?xml version="1.0" encoding="utf-8"?>
<!-- Generator: Adobe Illustrator 16.0.4, SVG Export Plug-In . SVG Version: 6.00 Build 0)  -->
<!DOCTYPE svg PUBLIC "-//W3C//DTD SVG 1.1 Tiny//EN" "http://www.w3.org/Graphics/SVG/1.1/DTD/svg11-tiny.dtd">
<svg version="1.1" baseProfile="tiny" id="Layer_1" xmlns="http://www.w3.org/2000/svg" xmlns:xlink="http://www.w3.org/1999/xlink"
	 x="0px" y="0px" width="200px" height="200px" viewBox="0 0 200 200" xml:space="preserve">
<g>
	<path fill="#FFFFFF" d="M99.996,0.5C45.134,0.5,0.5,45.135,0.5,99.999c0,54.866,44.634,99.501,99.496,99.501
		c54.869,0,99.504-44.635,99.504-99.501C199.5,45.135,154.865,0.5,99.996,0.5z"/>
	<g>
		<g>
			<path fill="#205698" d="M18.967,112.746c0.162,0.978-0.484,2.077-1.516,2.241c-1.109,0.18-2.058-0.484-2.239-1.596
				c-0.188-1.142,0.413-2.094,1.606-2.289C17.916,110.922,18.783,111.637,18.967,112.746z"/>
		</g>
		<g>
			<path fill="#205698" d="M20.646,98.086c-1.191,1.12-3.148,1.583-4.73,1.486c-1.542-0.093-3.101-0.684-4.283-1.951
				c-0.843-0.896-1.533-2.428-1.421-4.229c0.088-1.501,0.729-2.707,1.108-3.279c0.147-0.207,0.135-0.291,0.024-0.329l-0.473-0.164
				c-0.097-0.036-0.093-0.072-0.087-0.219c0.011-0.149,0.046-0.181,0.28-0.166c0.311,0.021,2.761-0.165,3.228-0.217
				c0.088-0.012,0.152,0.01,0.164,0.073l0.053,0.252c0.009,0.086-0.009,0.116-0.146,0.158c-0.558,0.198-1.373,0.512-2.125,1.164
				c-0.754,0.649-1.366,1.49-1.447,2.796c-0.182,2.955,2.375,4.304,4.793,4.432c0.958,0.059,2.844-0.125,4.344-1.327
				c1.326-1.046,1.513-1.979,1.583-3.085c0.115-1.866-0.823-3.382-1.851-4.207c-0.081-0.054-0.099-0.087-0.043-0.132l0.179-0.206
				c0.034-0.049,0.07-0.08,0.151-0.025c1.378,1.08,2.62,2.762,2.481,5.09C22.304,95.95,21.622,97.15,20.646,98.086z"/>
		</g>
		<g>
			<path fill="#205698" d="M17.428,81.985c0.029-0.131,0.362-1.87,0.377-2.072c0.029-0.484-0.074-0.643-0.537-0.905
				c-0.156-0.085-0.458-0.226-0.762-0.311c-0.082-0.02-0.106-0.076-0.087-0.141l0.107-0.398c0.021-0.079,0.094-0.099,0.154-0.065
				c0.257,0.11,1.583,0.417,1.828,0.473c0.566,0.132,1.351,0.246,1.7,0.293c0.082,0.019,0.104,0.059,0.106,0.126l-0.034,0.366
				c-0.002,0.085-0.055,0.105-0.175,0.096c-0.216-0.015-0.609-0.005-0.802,0.003c-0.357,0.018-0.641,0.138-0.787,0.546
				c-0.254,0.738-0.512,1.852-0.576,2.108l1.006,0.235c0.871,0.2,2.439,0.53,2.768,0.606c0.84,0.178,1.256-0.15,1.466-0.628
				c0.143-0.308,0.298-0.766,0.388-1.167c0.067-0.275,0.237-1.084,0.284-1.43c0.029-0.283,0.017-1.033-0.245-1.535
				c-0.112-0.231-1.07-1.402-1.385-1.714c-0.07-0.068-0.125-0.13-0.053-0.216l0.203-0.225c0.066-0.069,0.119-0.057,0.235,0.02
				l2.175,1.404c0.132,0.082,0.202,0.218,0.159,0.406c-0.038,0.161-0.375,1.424-1.539,6.44c-0.279,1.213-0.362,1.788-0.426,2.078
				c-0.023,0.098-0.064,0.136-0.147,0.118l-0.438-0.101c-0.064-0.015-0.07-0.067-0.046-0.182l0.151-0.644
				c0.169-0.743,0.076-0.833-0.525-0.97l-3.819-0.888l-1.583-0.367c-1.34-0.31-3.366-0.746-3.534-0.766
				c-0.526-0.055-0.677,0.079-0.816,0.676l-0.135,0.58c-0.018,0.082-0.046,0.126-0.142,0.103l-0.436-0.1
				c-0.045-0.012-0.075-0.051-0.051-0.132c0.082-0.355,0.26-0.908,0.504-1.971l0.164-0.712c0.371-1.595,0.724-3.194,1.088-4.792
				c0.064-0.258,0.1-0.571,0.12-0.652c0.019-0.079,0.062-0.105,0.108-0.109c0.245-0.014,2.616-0.21,2.792-0.222
				c0.066,0,0.113,0.012,0.13,0.084l0.073,0.271c0.018,0.057-0.041,0.109-0.076,0.118c-0.076,0.016-1.88,0.854-2.213,1.185
				c-0.307,0.285-0.602,0.694-0.72,1.125l-0.725,2.854L17.428,81.985z"/>
		</g>
		<g>
			<path fill="#205698" d="M17.479,69.633c-0.904-0.375-1.598-0.128-1.843,0.415l-0.277,0.619c-0.03,0.076-0.1,0.066-0.143,0.049
				l-0.397-0.169c-0.062-0.023-0.087-0.053-0.056-0.129c0.064-0.152,0.243-0.454,0.677-1.492c0.22-0.52,0.321-0.854,0.395-1.036
				c0.082-0.199,0.2-0.294,0.386-0.36c0.122-0.036,5.211-1.392,5.5-1.468c0.28-0.08,4.525-1.339,5.166-1.503l0.025-0.058
				L25.09,63.74c-1.358-0.568-2.114-0.866-2.891-1.155c-0.603-0.233-2.136-0.781-2.434-0.799c-0.432-0.037-0.766,0.163-0.944,0.591
				l-0.208,0.486c-0.023,0.062-0.066,0.081-0.143,0.048l-0.4-0.165c-0.059-0.025-0.077-0.068-0.053-0.133
				c0.091-0.212,0.34-0.682,0.748-1.659c0.382-0.917,0.49-1.3,0.574-1.5c0.047-0.105,0.093-0.102,0.158-0.077l0.381,0.16
				c0.061,0.025,0.097,0.076,0.067,0.138l-0.168,0.41c-0.173,0.413,0.023,0.675,0.59,0.949c1.001,0.487,2.516,1.119,3.511,1.535
				l5.721,2.388c0.21,0.09,0.356,0.168,0.333,0.229c-0.079,0.183-0.315,0.245-0.396,0.265c-0.039,0.004-1.546,0.43-3.132,0.878
				c-1.779,0.514-3.649,1.04-3.783,1.095c-0.222,0.104-4.923,1.438-5.086,1.48l-0.037,0.09l3.396,1.418
				c1.418,0.595,3.966,1.514,4.286,1.609c0.619,0.188,0.949,0.219,1.122-0.196l0.192-0.456c0.04-0.106,0.094-0.103,0.187-0.064
				l0.335,0.14c0.09,0.041,0.117,0.066,0.071,0.173c-0.065,0.153-0.49,1.05-0.663,1.463c-0.134,0.321-0.526,1.394-0.589,1.547
				c-0.026,0.059-0.065,0.062-0.141,0.031l-0.397-0.167c-0.046-0.018-0.087-0.052-0.055-0.128l0.219-0.521
				c0.184-0.44,0.07-0.686-0.648-1.076c-0.274-0.151-2.01-0.909-4.729-2.046L17.479,69.633z"/>
		</g>
		<g>
			<path fill="#205698" d="M24.379,52.133l-0.223,0.348c-0.286,0.449-1.06,1.662-1.244,2.312c-0.201,0.754,0.508,1.796,0.829,2.275
				c0.054,0.074,0.038,0.124-0.017,0.185l-0.228,0.206c-0.043,0.033-0.086,0.067-0.151-0.016c-0.414-0.462-1.904-2.099-2.038-2.226
				c-0.164-0.143-0.169-0.225-0.134-0.281c0.041-0.072,0.087-0.103,0.164-0.132l0.242-0.101c0.341-0.137,0.47-0.248,0.744-0.642
				c0.5-0.724,0.929-1.273,1.768-2.585l0.429-0.669c0.969-1.52,1.3-2.155,1.705-2.857c0.181-0.314,0.257-0.521,0.269-0.85v-0.372
				c0.006-0.097,0.021-0.147,0.052-0.202c0.042-0.069,0.103-0.071,0.303,0.018c0.185,0.078,2.087,0.919,2.775,1.201
				c0.076,0.031,0.084,0.076,0.059,0.152l-0.088,0.261c-0.023,0.065-0.046,0.071-0.169,0.052c-0.339-0.061-1.682-0.33-2.198-0.012
				c-0.479,0.285-1.342,1.579-1.779,2.261l-0.252,0.392l3.983,2.543c0.192,0.123,4.1,2.622,4.346,2.763
				c0.366,0.194,0.648,0.216,0.863-0.119l0.562-0.877c0.079-0.127,0.128-0.114,0.228-0.052l0.293,0.188
				c0.072,0.044,0.102,0.086,0.02,0.208c-0.083,0.138-0.412,0.56-1.284,1.925c-0.856,1.341-1.189,1.953-1.314,2.149
				c-0.069,0.111-0.134,0.089-0.222,0.037l-0.263-0.17c-0.097-0.063-0.134-0.104-0.079-0.188l0.604-0.949
				c0.183-0.276,0.123-0.555-0.039-0.674c-0.375-0.3-4.665-3.039-4.93-3.209L24.379,52.133z"/>
		</g>
		<g>
			<path fill="#205698" d="M34.008,44.807c-0.91-0.814-1.706-1.525-2.071-1.834c-0.419-0.352-0.762-0.393-1.036-0.086l-0.444,0.494
				c-0.052,0.062-0.102,0.041-0.152-0.003l-0.306-0.277c-0.064-0.056-0.079-0.088-0.021-0.151c0.099-0.109,0.479-0.459,1.407-1.493
				c0.617-0.689,1.61-1.867,1.807-2.091c0.917-1.021,1.955-1.559,2.817-1.628c0.761-0.053,1.526,0.21,1.981,0.62
				c1.542,1.384,1.492,2.605,0.423,4.49l0.027,0.021c0.373-0.196,0.75-0.169,0.976-0.145c0.291-0.004,2.329,0.25,2.579,0.294
				c0.179,0.049,2.009,0.269,2.39,0.188c0.419-0.093,0.694-0.354,1.007-0.699c0.079-0.085,0.137-0.053,0.188-0.01l0.271,0.244
				c0.068,0.066,0.099,0.111,0.023,0.198c-0.088,0.099-0.414,0.388-0.9,0.93c-0.321,0.355-0.707,0.834-0.857,1.028
				c-0.246,0.025-0.905-0.08-1.167-0.113c-0.234-0.033-2.006-0.42-2.156-0.445c-0.134-0.029-1.55-0.234-1.856-0.242
				c-0.665-0.021-1.266-0.023-1.904,0.688c-0.099,0.111-0.211,0.236-0.329,0.441l0.69,0.62c0.728,0.65,2.115,1.878,2.316,2.032
				c0.276,0.207,0.592,0.31,0.755,0.123l0.696-0.775c0.076-0.086,0.128-0.065,0.187-0.011l0.272,0.243
				c0.083,0.078,0.099,0.111-0.013,0.235c-0.12,0.136-0.435,0.41-1.486,1.578c-1.005,1.123-1.217,1.439-1.343,1.574
				c-0.085,0.1-0.122,0.066-0.185,0.012l-0.281-0.256c-0.065-0.055-0.1-0.09-0.045-0.149l0.452-0.506
				c0.239-0.27,0.345-0.558,0.012-0.857c-1.196-1.119-2.355-2.158-3.526-3.207L34.008,44.807z M36.22,44.794
				c0.204-0.148,0.338-0.276,0.548-0.509c2.011-2.242,0.856-4.055,0.338-4.519c-0.565-0.512-1.343-0.737-1.953-0.646
				c-0.817,0.138-1.489,0.515-2.404,1.536c-0.136,0.146-0.253,0.33-0.276,0.506c-0.015,0.143,0.064,0.323,0.26,0.502L36.22,44.794z"
				/>
		</g>
		<g>
			<path fill="#205698" d="M46.439,36.396c0.129,0.428,0.996,2.96,1.152,3.285c0.055,0.101,0.132,0.25,0.187,0.313
				c0.144,0.182,0.379,0.16,0.664-0.066l0.606-0.484c0.094-0.074,0.151-0.078,0.204-0.014l0.237,0.295
				c0.072,0.093,0.055,0.15-0.01,0.202c-0.183,0.145-0.738,0.531-1.504,1.139c-0.944,0.755-1.197,1.021-1.371,1.166
				c-0.071,0.052-0.114,0.046-0.178-0.032l-0.251-0.31c-0.045-0.064-0.021-0.131,0.029-0.173l0.457-0.361
				c0.385-0.311,0.419-0.636,0.27-1.195c-0.071-0.278-1.047-3.426-1.521-4.786c-0.115-0.331-1.295-3.949-1.455-4.391
				c-0.068-0.161-0.135-0.379-0.343-0.451c-0.079-0.021-0.187-0.042-0.226-0.095c-0.03-0.039-0.042-0.11,0.027-0.21
				c0.298-0.368,0.554-1.209,0.554-1.504c0.012-0.116,0.006-0.198,0.071-0.251c0.079-0.063,0.169-0.006,0.317,0.105
				c0.896,0.619,4.228,2.709,5.133,3.341c1.104,0.771,3.867,2.505,4.354,2.732c0.561,0.252,1.019,0.138,1.343-0.12l0.424-0.341
				c0.079-0.062,0.139-0.045,0.179,0.008l0.258,0.324c0.053,0.063,0.033,0.119-0.054,0.192c-0.236,0.185-0.537,0.363-1.583,1.203
				c-1.075,0.857-1.495,1.257-1.793,1.494c-0.064,0.055-0.132,0.047-0.196-0.031l-0.235-0.297c-0.064-0.078-0.039-0.121,0.043-0.185
				l0.32-0.261c0.366-0.289,0.374-0.509-0.002-0.799c-0.478-0.385-2.336-1.615-2.927-1.987L46.439,36.396z M49.09,33.512
				c-0.426-0.297-4.058-2.691-4.28-2.833c-0.109-0.061-0.21-0.128-0.25-0.098c-0.046,0.04-0.024,0.173,0.018,0.308
				c0.069,0.22,1.489,4.511,1.662,4.907L49.09,33.512z"/>
		</g>
		<g>
			<path fill="#205698" d="M55.473,26.359c-0.514-0.923-1.402-2.441-1.562-2.691c-0.237-0.36-0.395-0.464-0.825-0.22l-0.679,0.376
				c-0.088,0.051-0.14-0.014-0.181-0.084l-0.18-0.319c-0.037-0.071-0.043-0.109,0.046-0.158c0.156-0.089,0.703-0.338,1.901-1.01
				c1.396-0.784,1.981-1.167,2.111-1.24c0.114-0.066,0.151-0.028,0.192,0.042l0.187,0.333c0.041,0.073,0.035,0.132-0.081,0.197
				l-0.866,0.486c-0.448,0.251-0.421,0.426-0.188,0.847c0.106,0.188,1.281,2.395,1.852,3.406l0.696,1.243
				c0.134,0.244,1.889,3.367,2.258,3.936c0.334-0.15,3.206-1.722,3.621-2.033c0.782-0.606,0.675-2.825,0.562-3.504
				c-0.006-0.073,0.006-0.117,0.08-0.12l0.281-0.045c0.058,0.004,0.069,0.02,0.099,0.112c0.02,0.129,0.777,2.836,0.908,3.273
				c-0.392,0.181-4.55,2.499-6.099,3.365c-1.139,0.64-1.633,0.975-1.823,1.081c-0.101,0.056-0.13,0.035-0.175-0.037l-0.198-0.361
				c-0.041-0.072-0.041-0.109,0.044-0.157l0.691-0.39c0.532-0.299,0.509-0.552,0.403-0.739c-0.153-0.274-2.129-3.897-2.619-4.779
				L55.473,26.359z"/>
		</g>
		<g>
			<path fill="#205698" d="M74.814,21.193c-0.946,0.302-2.123-0.174-2.445-1.166c-0.34-1.073,0.178-2.11,1.253-2.453
				c1.104-0.354,2.133,0.098,2.504,1.252C76.46,19.882,75.885,20.849,74.814,21.193z"/>
		</g>
		<g>
			<path fill="#205698" d="M87.871,20.952c-1.306-0.998-2.082-2.851-2.248-4.432c-0.163-1.532,0.166-3.169,1.22-4.545
				c0.747-0.979,2.15-1.906,3.94-2.097c1.499-0.155,2.794,0.275,3.418,0.56c0.229,0.109,0.309,0.086,0.332-0.034l0.082-0.492
				c0.025-0.102,0.054-0.105,0.206-0.123c0.145-0.014,0.185,0.018,0.21,0.248c0.028,0.312,0.611,2.7,0.742,3.155
				c0.026,0.079,0.017,0.146-0.049,0.169l-0.239,0.094c-0.081,0.024-0.117,0.011-0.181-0.115c-0.285-0.52-0.73-1.272-1.494-1.91
				c-0.771-0.635-1.699-1.105-2.998-0.97c-2.941,0.309-3.854,3.054-3.59,5.459c0.1,0.956,0.591,2.789,2.026,4.07
				c1.25,1.136,2.201,1.17,3.301,1.053c1.859-0.193,3.202-1.366,3.848-2.52c0.04-0.085,0.07-0.105,0.128-0.061l0.228,0.143
				c0.052,0.027,0.094,0.057,0.05,0.144c-0.841,1.539-2.293,3.039-4.617,3.283C90.248,22.234,88.948,21.755,87.871,20.952z"/>
		</g>
		<g>
			<path fill="#205698" d="M101.506,20.526c-1.122-0.787-2.254-2.652-2.097-5.066c0.071-1.009,0.439-2.561,1.815-4.013
				c1.57-1.672,3.233-1.893,4.609-1.804c1.042,0.07,2.385,0.375,3.616,1.553c1.134,1.121,2.084,2.812,1.932,5.091
				c-0.081,1.206-0.548,2.438-1.48,3.536c-1.098,1.272-2.635,2.167-4.913,2.015C104.182,21.784,102.76,21.425,101.506,20.526z
				 M109.756,16.312c0.245-3.618-2.192-5.922-4.026-6.043c-0.245-0.018-1.355-0.289-2.669,0.802
				c-1.182,0.985-1.84,2.618-1.928,3.974c-0.291,4.346,2.622,6.081,4.028,6.175C108.798,21.461,109.654,17.782,109.756,16.312z"/>
		</g>
		<g>
			<path fill="#205698" d="M117.094,13.457c0.239-0.947-0.104-1.598-0.682-1.761l-0.649-0.185c-0.082-0.021-0.082-0.09-0.064-0.136
				l0.107-0.418c0.018-0.063,0.032-0.092,0.114-0.072c0.163,0.042,0.486,0.175,1.576,0.452c0.544,0.139,0.89,0.19,1.082,0.241
				c0.21,0.053,0.323,0.149,0.408,0.327c0.059,0.114,2.136,4.953,2.261,5.224c0.116,0.268,1.978,4.281,2.236,4.893l0.064,0.015
				l0.483-1.909c0.361-1.43,0.548-2.221,0.72-3.031c0.146-0.63,0.466-2.225,0.435-2.522c-0.023-0.432-0.266-0.735-0.715-0.851
				l-0.515-0.129c-0.062-0.018-0.086-0.058-0.068-0.138l0.108-0.416c0.012-0.065,0.055-0.089,0.119-0.07
				c0.228,0.057,0.723,0.236,1.751,0.495c0.956,0.243,1.36,0.295,1.564,0.347c0.118,0.029,0.118,0.08,0.101,0.145l-0.101,0.399
				c-0.018,0.066-0.062,0.104-0.121,0.089l-0.44-0.11c-0.432-0.11-0.659,0.122-0.846,0.726c-0.34,1.061-0.742,2.648-1.005,3.693
				l-1.535,6.004c-0.055,0.225-0.11,0.382-0.175,0.364c-0.192-0.046-0.293-0.277-0.32-0.354c-0.006-0.036-0.649-1.465-1.328-2.971
				c-0.766-1.682-1.558-3.458-1.628-3.575c-0.14-0.206-2.146-4.666-2.21-4.816l-0.091-0.025l-0.912,3.562
				c-0.379,1.494-0.917,4.144-0.964,4.474c-0.099,0.643-0.081,0.97,0.358,1.08l0.478,0.124c0.111,0.027,0.116,0.081,0.088,0.177
				l-0.088,0.353c-0.023,0.095-0.053,0.126-0.159,0.095c-0.163-0.039-1.113-0.332-1.545-0.441c-0.34-0.084-1.454-0.317-1.611-0.359
				c-0.068-0.016-0.079-0.052-0.061-0.132l0.113-0.419c0.012-0.047,0.041-0.092,0.116-0.07l0.548,0.138
				c0.467,0.118,0.694-0.029,0.97-0.796c0.111-0.295,0.606-2.119,1.338-4.979L117.094,13.457z"/>
		</g>
		<g>
			<path fill="#205698" d="M132.085,17.927c0.416-0.888,0.187-1.592-0.342-1.854l-0.618-0.299c-0.074-0.034-0.062-0.102-0.039-0.146
				l0.181-0.391c0.023-0.062,0.053-0.083,0.128-0.05c0.154,0.067,0.445,0.258,1.474,0.729c0.507,0.234,0.833,0.349,1.017,0.43
				c0.198,0.09,0.289,0.207,0.35,0.396c0.029,0.124,1.213,5.255,1.276,5.542c0.072,0.287,1.182,4.567,1.327,5.216l0.055,0.027
				l0.822-1.792c0.618-1.34,0.94-2.084,1.253-2.851c0.253-0.595,0.854-2.103,0.883-2.4c0.053-0.432-0.14-0.773-0.56-0.968
				l-0.479-0.221c-0.061-0.027-0.075-0.071-0.043-0.146l0.181-0.391c0.029-0.061,0.072-0.078,0.131-0.049
				c0.21,0.097,0.67,0.361,1.632,0.802c0.902,0.414,1.289,0.536,1.487,0.624c0.099,0.05,0.099,0.1,0.069,0.16l-0.169,0.376
				c-0.029,0.062-0.083,0.094-0.14,0.064l-0.41-0.187c-0.402-0.187-0.676,0-0.97,0.56c-0.521,0.981-1.205,2.471-1.651,3.449
				l-2.587,5.632c-0.094,0.21-0.177,0.354-0.243,0.326c-0.181-0.083-0.228-0.324-0.245-0.405c-0.006-0.037-0.379-1.559-0.775-3.16
				c-0.448-1.794-0.911-3.681-0.958-3.812c-0.097-0.226-1.272-4.972-1.306-5.134l-0.087-0.042l-1.538,3.343
				c-0.637,1.402-1.64,3.908-1.751,4.224c-0.209,0.614-0.252,0.943,0.152,1.129l0.454,0.208c0.105,0.048,0.1,0.099,0.059,0.189
				l-0.157,0.331c-0.035,0.09-0.07,0.112-0.169,0.064c-0.157-0.067-1.034-0.526-1.442-0.714c-0.314-0.144-1.374-0.576-1.525-0.646
				c-0.059-0.024-0.059-0.062-0.029-0.138l0.181-0.391c0.023-0.046,0.053-0.083,0.136-0.051l0.516,0.236
				c0.432,0.199,0.682,0.097,1.096-0.609c0.159-0.271,0.976-1.974,2.206-4.654L132.085,17.927z"/>
		</g>
		<g>
			<path fill="#205698" d="M145.523,28.62c0.11,0.076,1.61,1.019,1.791,1.104c0.443,0.201,0.63,0.166,1.038-0.175
				c0.134-0.109,0.373-0.346,0.567-0.595c0.045-0.069,0.111-0.069,0.163-0.032l0.329,0.246c0.067,0.047,0.062,0.12,0.012,0.168
				c-0.2,0.204-0.97,1.326-1.106,1.531c-0.326,0.479-0.717,1.174-0.886,1.479c-0.047,0.068-0.094,0.076-0.157,0.054l-0.327-0.164
				c-0.081-0.033-0.075-0.094-0.029-0.198c0.098-0.195,0.228-0.565,0.292-0.746c0.11-0.343,0.104-0.65-0.229-0.933
				c-0.589-0.509-1.533-1.152-1.757-1.302l-0.579,0.852c-0.501,0.739-1.378,2.084-1.559,2.359c-0.478,0.72-0.32,1.227,0.047,1.598
				c0.233,0.242,0.608,0.554,0.946,0.786c0.228,0.159,0.921,0.611,1.232,0.78c0.252,0.131,0.952,0.391,1.512,0.333
				c0.265-0.023,1.692-0.49,2.103-0.674c0.088-0.042,0.163-0.068,0.222,0.028l0.134,0.272c0.041,0.089,0.012,0.131-0.103,0.212
				l-2.097,1.517c-0.123,0.096-0.282,0.113-0.445,0.002c-0.132-0.094-1.184-0.872-5.436-3.771c-1.022-0.699-1.531-0.984-1.776-1.153
				c-0.084-0.057-0.104-0.11-0.061-0.181l0.259-0.368c0.035-0.056,0.082-0.041,0.181,0.025l0.544,0.372
				c0.626,0.431,0.752,0.369,1.093-0.137l2.213-3.245l0.912-1.343c0.777-1.135,1.916-2.864,1.995-3.012
				c0.239-0.475,0.169-0.665-0.332-1.009l-0.495-0.336c-0.07-0.047-0.1-0.09-0.041-0.172l0.25-0.367
				c0.029-0.042,0.076-0.05,0.141-0.004c0.297,0.204,0.746,0.573,1.651,1.188l0.601,0.41c1.354,0.923,2.717,1.833,4.065,2.756
				c0.224,0.148,0.504,0.298,0.571,0.345c0.066,0.047,0.078,0.094,0.061,0.143c-0.078,0.23-0.748,2.517-0.809,2.68
				c-0.018,0.066-0.053,0.106-0.12,0.096l-0.282-0.029c-0.058,0-0.085-0.079-0.079-0.115c0.012-0.073-0.113-2.064-0.3-2.494
				c-0.155-0.387-0.432-0.813-0.793-1.078l-2.394-1.715L145.523,28.62z"/>
		</g>
		<g>
			<path fill="#205698" d="M151.556,39.426c-0.088-1.637,0.815-3.428,1.914-4.579c1.07-1.115,2.522-1.924,4.25-2.015
				c1.229-0.066,2.845,0.397,4.147,1.64c1.09,1.038,1.604,2.304,1.793,2.964c0.064,0.247,0.143,0.291,0.239,0.229l0.434-0.257
				c0.085-0.047,0.108-0.026,0.216,0.076c0.108,0.103,0.108,0.149-0.047,0.316c-0.218,0.23-1.656,2.223-1.916,2.614
				c-0.049,0.071-0.102,0.107-0.163,0.073l-0.229-0.124c-0.07-0.044-0.082-0.08-0.023-0.21c0.204-0.554,0.489-1.382,0.478-2.377
				c-0.009-0.993-0.254-2.007-1.2-2.909c-2.144-2.041-4.826-0.956-6.481,0.807c-0.663,0.697-1.735,2.259-1.784,4.18
				c-0.053,1.688,0.536,2.433,1.339,3.196c1.362,1.29,3.117,1.55,4.414,1.296c0.095-0.027,0.13-0.016,0.13,0.054l0.041,0.269
				c0.012,0.061,0.012,0.106-0.076,0.132c-1.718,0.36-3.801,0.225-5.498-1.385C152.127,42.07,151.646,40.771,151.556,39.426z"/>
		</g>
		<g>
			<path fill="#205698" d="M170.142,44.952l-0.251-0.33c-0.32-0.42-1.186-1.571-1.733-1.965c-0.634-0.454-1.857-0.15-2.417-0.016
				c-0.088,0.023-0.131-0.006-0.172-0.083l-0.108-0.289c-0.02-0.05-0.037-0.099,0.07-0.131c0.571-0.228,2.627-1.054,2.788-1.135
				c0.194-0.104,0.271-0.082,0.312-0.03c0.052,0.067,0.063,0.118,0.063,0.199l0.012,0.262c0.014,0.368,0.07,0.529,0.345,0.922
				c0.503,0.719,0.87,1.315,1.805,2.554l0.479,0.634c1.086,1.439,1.572,1.966,2.085,2.594c0.228,0.28,0.402,0.422,0.701,0.546
				l0.353,0.13c0.085,0.037,0.132,0.066,0.173,0.119c0.046,0.066,0.025,0.123-0.129,0.277c-0.14,0.148-1.587,1.635-2.091,2.181
				c-0.059,0.062-0.106,0.057-0.165,0l-0.216-0.172c-0.051-0.042-0.047-0.065,0.018-0.176c0.171-0.294,0.89-1.457,0.773-2.054
				c-0.099-0.545-1.013-1.807-1.502-2.453l-0.274-0.368l-3.773,2.843c-0.181,0.141-3.883,2.934-4.099,3.116
				c-0.312,0.276-0.434,0.531-0.192,0.85l0.631,0.83c0.088,0.12,0.059,0.161-0.034,0.234l-0.276,0.208
				c-0.07,0.048-0.116,0.066-0.212-0.054c-0.097-0.132-0.373-0.585-1.353-1.878c-0.958-1.265-1.413-1.79-1.547-1.976
				c-0.082-0.105-0.041-0.158,0.041-0.217l0.253-0.191c0.085-0.068,0.138-0.086,0.198-0.006l0.674,0.896
				c0.2,0.265,0.48,0.302,0.651,0.196c0.408-0.25,4.472-3.312,4.722-3.502L170.142,44.952z"/>
		</g>
		<g>
			<path fill="#205698" d="M172.929,56.589c0.344-0.197,2.907-1.72,3.116-1.857c0.327-0.224,0.391-0.451,0.076-0.999l-0.472-0.832
				c-0.043-0.069-0.035-0.13,0.022-0.164l0.385-0.221c0.053-0.032,0.111-0.008,0.143,0.051c0.097,0.173,0.476,0.93,1.237,2.267
				c0.731,1.278,1.038,1.714,1.148,1.914c0.041,0.069,0.018,0.123-0.038,0.158l-0.363,0.204c-0.068,0.04-0.129,0.015-0.164-0.056
				l-0.385-0.676c-0.165-0.288-0.406-0.438-0.691-0.273c-0.144,0.083-3.351,1.854-3.525,1.953l-1.105,0.632
				c-0.145,0.082-3.438,2.023-3.6,2.114c-0.444,0.253-0.395,0.511-0.13,0.97l0.334,0.591c0.047,0.069,0.035,0.131-0.037,0.171
				l-0.367,0.215c-0.063,0.031-0.116,0.005-0.163-0.08c-0.099-0.171-0.387-0.77-1.098-2.021c-0.777-1.364-1.174-1.957-1.27-2.117
				c-0.04-0.071-0.035-0.132,0.023-0.163l0.385-0.222c0.061-0.032,0.119-0.006,0.157,0.064l0.459,0.805
				c0.161,0.288,0.379,0.564,0.781,0.408c0.239-0.096,3.37-1.825,4.128-2.26L172.929,56.589z"/>
		</g>
		<g>
			<path fill="#205698" d="M171.549,66.006c0.589-1.526,2.151-2.791,3.62-3.393c1.427-0.583,3.09-0.725,4.709-0.099
				c1.143,0.443,2.427,1.525,3.111,3.194c0.573,1.393,0.521,2.752,0.42,3.437c-0.039,0.25,0.012,0.319,0.13,0.308l0.487-0.059
				c0.107-0.008,0.125,0.022,0.176,0.161c0.06,0.138,0.042,0.18-0.176,0.268c-0.289,0.12-2.415,1.347-2.819,1.598
				c-0.064,0.048-0.134,0.057-0.175,0.002l-0.157-0.204c-0.047-0.069-0.041-0.106,0.056-0.204c0.422-0.422,1.026-1.059,1.423-1.971
				c0.391-0.911,0.583-1.937,0.088-3.146c-1.124-2.739-4.008-2.847-6.242-1.917c-0.891,0.364-2.513,1.349-3.341,3.081
				c-0.744,1.516-0.511,2.439-0.088,3.465c0.712,1.73,2.206,2.688,3.496,2.984c0.094,0.018,0.125,0.041,0.094,0.105l-0.07,0.26
				c-0.012,0.06-0.035,0.103-0.122,0.088c-1.71-0.373-3.562-1.351-4.444-3.51C170.983,68.649,171.082,67.27,171.549,66.006z"/>
		</g>
		<g>
			<path fill="#205698" d="M175.253,80.096c0.192-1.194,0.781-1.918,1.745-2.404c0.684-0.354,1.753-0.66,3.871-1.131l3.848-0.855
				c0.567-0.124,0.801-0.296,0.689-0.798l-0.169-0.758c-0.018-0.097,0.006-0.12,0.123-0.146l0.355-0.078
				c0.093-0.022,0.134-0.011,0.157,0.117c0.041,0.161,0.169,0.963,0.443,2.223c0.283,1.26,0.505,2.024,0.546,2.202
				c0.027,0.131,0,0.152-0.064,0.166l-0.424,0.094c-0.081,0.017-0.116,0.009-0.146-0.105l-0.175-0.807
				c-0.104-0.468-0.473-0.674-0.834-0.628c-0.151,0.018-1.29,0.253-2.112,0.436l-1.068,0.237c-0.855,0.19-2.892,0.712-3.413,0.844
				c-0.74,0.181-1.471,0.478-1.939,0.972c-0.74,0.793-0.799,1.891-0.589,2.827c0.198,0.919,0.72,1.788,1.425,2.226
				c0.826,0.478,1.84,0.472,3.035,0.206l3.463-0.768c1.229-0.273,2.155-0.516,2.556-0.653c0.408-0.142,0.642-0.465,0.554-0.885
				l-0.163-0.711c-0.023-0.096,0.023-0.123,0.105-0.142l0.385-0.086c0.081-0.018,0.116-0.01,0.14,0.086
				c0.035,0.162,0.151,0.914,0.391,1.998c0.251,1.114,0.414,1.621,0.443,1.765c0.037,0.147-0.023,0.178-0.076,0.188l-0.35,0.081
				c-0.1,0.019-0.169,0.018-0.187-0.062l-0.151-0.661c-0.129-0.6-0.595-0.545-0.795-0.552c-0.175,0.004-2.473,0.514-2.697,0.562
				c-0.228,0.052-3.067,0.65-3.708,0.74c-1.343,0.198-2.447,0.07-3.425-0.663c-0.74-0.513-1.331-1.415-1.646-2.821
				C175.216,81.511,175.146,80.679,175.253,80.096z"/>
		</g>
		<g>
			<path fill="#205698" d="M188.508,94.197l-0.018-0.414c-0.028-0.528-0.095-1.967-0.322-2.603c-0.273-0.732-1.453-1.17-1.992-1.379
				c-0.087-0.027-0.104-0.076-0.093-0.158l0.067-0.303c0.014-0.051,0.031-0.1,0.131-0.074c0.603,0.139,2.771,0.616,2.952,0.638
				c0.214,0.025,0.266,0.09,0.271,0.154c0.006,0.084-0.012,0.133-0.058,0.201l-0.141,0.222c-0.198,0.307-0.245,0.476-0.233,0.958
				c0.006,0.875-0.021,1.571,0.047,3.125l0.041,0.793c0.09,1.802,0.187,2.509,0.259,3.317c0.027,0.364,0.091,0.574,0.271,0.847
				l0.21,0.308c0.059,0.078,0.076,0.128,0.076,0.192c0.006,0.082-0.047,0.12-0.257,0.163c-0.198,0.043-2.229,0.453-2.952,0.622
				c-0.083,0.02-0.118-0.012-0.142-0.094l-0.074-0.262c-0.02-0.066-0.006-0.084,0.109-0.138c0.311-0.148,1.559-0.706,1.8-1.262
				c0.221-0.509,0.179-2.062,0.144-2.871l-0.027-0.462l-4.713,0.222c-0.235,0.012-4.866,0.234-5.149,0.263
				c-0.408,0.052-0.649,0.197-0.638,0.594l0.055,1.04c0.012,0.149-0.043,0.167-0.159,0.172l-0.345,0.019
				c-0.081,0.004-0.136-0.011-0.142-0.161c-0.012-0.165,0.012-0.695-0.057-2.316c-0.081-1.584-0.165-2.275-0.179-2.508
				c0-0.131,0.066-0.15,0.161-0.155l0.315-0.015c0.116-0.006,0.163,0.008,0.175,0.108l0.047,1.123
				c0.018,0.329,0.229,0.519,0.425,0.526c0.484,0.026,5.566-0.215,5.881-0.23L188.508,94.197z"/>
		</g>
		<g>
			<path fill="#205698" d="M15.041,130.244c0.064-0.232,0.076-0.339,0.042-0.415c-0.035-0.089-0.165-0.104-0.352-0.14
				c-0.205-0.023-0.247-0.092-0.287-0.192c-0.041-0.093,0.006-0.198,0.184-0.236c0.401-0.09,2.375-0.707,2.829-0.838
				c0.099-0.021,0.112,0.006,0.135,0.069l0.076,0.229c0.022,0.065,0.006,0.106-0.087,0.14c-0.473,0.211-0.958,0.438-1.527,1.244
				c-0.528,0.735-0.604,1.729-0.265,2.552c0.362,0.905,1.377,1.822,2.733,1.278c1.553-0.621,1.678-1.965,1.613-3.341
				c-0.019-0.53-0.077-1.764,0.339-2.687c0.295-0.693,0.903-1.232,1.895-1.634c0.754-0.305,1.683-0.129,2.308,0.158
				c0.729,0.339,1.24,1.004,1.569,1.816c0.345,0.858,0.357,1.622,0.338,1.927c-0.022,0.164,0.019,0.232,0.128,0.279l0.259,0.124
				c0.094,0.051,0.14,0.086,0.168,0.157c0.03,0.075-0.069,0.169-0.21,0.223c-0.524,0.216-1.981,1.026-2.31,1.173
				c-0.072,0.031-0.111,0.028-0.146-0.026l-0.118-0.159c-0.035-0.042-0.035-0.077,0.007-0.112c0.386-0.291,0.898-0.724,1.297-1.604
				c0.275-0.581,0.272-1.19-0.014-1.9c-0.538-1.337-1.723-1.42-2.494-1.112c-0.421,0.172-0.882,0.461-1.122,0.996
				c-0.26,0.614-0.258,1.586-0.216,2.078c0.087,1.168,0.169,2.113-0.274,2.923c-0.309,0.576-0.788,1.083-1.781,1.482
				c-1.778,0.717-3.737,0.243-4.537-1.743C14.802,131.903,14.819,131.039,15.041,130.244z"/>
		</g>
		<g>
			<path fill="#205698" d="M29.981,137.945l-0.201-0.356c-0.257-0.447-0.969-1.665-1.455-2.119c-0.56-0.516-1.788-0.368-2.354-0.303
				c-0.082,0.009-0.123-0.026-0.145-0.101l-0.082-0.296c-0.009-0.047-0.021-0.099,0.082-0.122c0.583-0.15,2.683-0.708,2.856-0.768
				c0.198-0.073,0.273-0.045,0.303,0.012c0.041,0.069,0.053,0.122,0.047,0.199l-0.023,0.255c-0.041,0.358,0,0.521,0.224,0.939
				c0.401,0.763,0.687,1.382,1.451,2.702l0.386,0.672c0.888,1.533,1.294,2.102,1.717,2.774c0.199,0.303,0.341,0.459,0.621,0.618
				l0.326,0.171c0.082,0.044,0.119,0.076,0.151,0.133c0.041,0.071,0.014,0.122-0.151,0.258c-0.151,0.128-1.743,1.398-2.297,1.866
				c-0.062,0.06-0.104,0.042-0.157-0.017l-0.191-0.193c-0.042-0.046-0.038-0.07,0.034-0.169c0.204-0.266,1.043-1.312,0.998-1.909
				c-0.028-0.539-0.768-1.875-1.162-2.563l-0.227-0.391l-4.007,2.312c-0.194,0.116-4.13,2.39-4.361,2.54
				c-0.335,0.231-0.481,0.468-0.292,0.805l0.514,0.883c0.076,0.124,0.041,0.164-0.059,0.222l-0.292,0.17
				c-0.072,0.041-0.123,0.049-0.193-0.072c-0.082-0.141-0.299-0.616-1.097-1.989c-0.782-1.349-1.162-1.915-1.277-2.113
				c-0.063-0.115-0.018-0.157,0.064-0.205l0.273-0.156c0.095-0.06,0.146-0.065,0.194,0.018l0.553,0.958
				c0.163,0.279,0.426,0.35,0.607,0.268c0.43-0.198,4.742-2.691,5.009-2.845L29.981,137.945z"/>
		</g>
		<g>
			<path fill="#205698" d="M30.089,149.916c-0.426,0.121-2.92,0.937-3.236,1.081c-0.099,0.06-0.25,0.131-0.309,0.183
				c-0.181,0.141-0.163,0.375,0.059,0.654l0.467,0.601c0.069,0.089,0.069,0.146,0.01,0.199l-0.296,0.231
				c-0.089,0.068-0.147,0.052-0.193-0.012c-0.141-0.182-0.511-0.732-1.104-1.489c-0.723-0.937-0.98-1.183-1.125-1.363
				c-0.048-0.065-0.042-0.111,0.033-0.171l0.31-0.237c0.061-0.054,0.128-0.019,0.17,0.034l0.346,0.443
				c0.302,0.385,0.623,0.42,1.171,0.281c0.272-0.068,3.37-0.981,4.706-1.432c0.326-0.111,3.887-1.227,4.321-1.385
				c0.158-0.057,0.374-0.121,0.443-0.32c0.023-0.082,0.047-0.181,0.1-0.222c0.039-0.03,0.111-0.041,0.205,0.029
				c0.354,0.294,1.181,0.558,1.468,0.558c0.114,0.015,0.191,0.015,0.247,0.079c0.061,0.074,0.004,0.16-0.113,0.306
				c-0.614,0.874-2.703,4.112-3.329,4.995c-0.771,1.07-2.504,3.762-2.734,4.229c-0.254,0.549-0.146,0.996,0.103,1.32l0.331,0.42
				c0.061,0.075,0.039,0.134-0.012,0.17l-0.319,0.248c-0.064,0.054-0.12,0.036-0.19-0.05c-0.182-0.234-0.349-0.527-1.156-1.565
				c-0.829-1.064-1.22-1.479-1.447-1.775c-0.047-0.066-0.041-0.128,0.035-0.19l0.292-0.23c0.082-0.062,0.123-0.036,0.183,0.047
				l0.249,0.313c0.28,0.36,0.496,0.375,0.782,0.008c0.384-0.461,1.611-2.266,1.986-2.841L30.089,149.916z M32.887,152.549
				c0.291-0.416,2.68-3.95,2.823-4.163c0.061-0.109,0.124-0.207,0.099-0.242c-0.038-0.054-0.173-0.033-0.301,0.006
				c-0.216,0.069-4.44,1.413-4.833,1.57L32.887,152.549z"/>
		</g>
		<g>
			<path fill="#205698" d="M43.742,155.865l-0.292-0.282c-0.373-0.356-1.394-1.334-1.986-1.63c-0.683-0.344-1.821,0.143-2.342,0.359
				c-0.08,0.035-0.128,0.015-0.174-0.055l-0.158-0.257c-0.021-0.048-0.047-0.095,0.047-0.14c0.519-0.312,2.383-1.43,2.528-1.536
				c0.17-0.13,0.251-0.118,0.298-0.077c0.056,0.06,0.082,0.104,0.094,0.184l0.052,0.249c0.063,0.356,0.146,0.504,0.476,0.84
				c0.601,0.62,1.044,1.141,2.146,2.189l0.56,0.538c1.275,1.224,1.828,1.658,2.421,2.188c0.268,0.236,0.455,0.345,0.765,0.418
				l0.358,0.076c0.09,0.021,0.137,0.043,0.186,0.087c0.059,0.057,0.049,0.117-0.078,0.29c-0.107,0.16-1.278,1.829-1.681,2.431
				c-0.047,0.071-0.093,0.074-0.162,0.03l-0.229-0.135c-0.063-0.035-0.063-0.058-0.018-0.168c0.12-0.317,0.639-1.555,0.429-2.11
				c-0.182-0.513-1.259-1.593-1.831-2.144l-0.333-0.314l-3.205,3.341c-0.157,0.162-3.304,3.442-3.483,3.655
				c-0.254,0.314-0.329,0.578-0.052,0.848l0.738,0.709c0.104,0.1,0.082,0.146,0.006,0.228l-0.233,0.249
				c-0.059,0.058-0.104,0.078-0.21-0.021c-0.121-0.114-0.461-0.506-1.606-1.604c-1.124-1.079-1.646-1.513-1.81-1.676
				c-0.094-0.088-0.066-0.147,0.006-0.217l0.212-0.222c0.079-0.083,0.126-0.106,0.194-0.038l0.796,0.763
				c0.232,0.225,0.508,0.216,0.653,0.089c0.365-0.307,3.819-3.901,4.03-4.124L43.742,155.865z"/>
		</g>
		<g>
			<path fill="#205698" d="M49.854,167.209c0.104,0.074,1.562,1.018,1.737,1.098c0.436,0.205,0.611,0.173,1.023-0.157
				c0.13-0.099,0.373-0.332,0.562-0.575c0.049-0.063,0.104-0.063,0.158-0.026l0.322,0.246c0.068,0.047,0.058,0.116,0.006,0.16
				c-0.198,0.201-0.958,1.294-1.104,1.485c-0.326,0.469-0.718,1.146-0.886,1.443c-0.047,0.064-0.092,0.077-0.151,0.053l-0.323-0.163
				c-0.076-0.038-0.076-0.094-0.017-0.198c0.089-0.192,0.227-0.555,0.285-0.726c0.118-0.339,0.112-0.639-0.204-0.923
				c-0.577-0.501-1.494-1.145-1.708-1.289l-0.576,0.824c-0.507,0.717-1.379,2.028-1.562,2.293c-0.474,0.701-0.328,1.198,0.029,1.566
				c0.227,0.237,0.586,0.549,0.913,0.782c0.227,0.157,0.9,0.61,1.196,0.776c0.246,0.133,0.933,0.397,1.48,0.345
				c0.253-0.023,1.67-0.457,2.066-0.638c0.087-0.038,0.165-0.064,0.217,0.035l0.129,0.267c0.04,0.089,0.012,0.127-0.103,0.207
				l-2.074,1.463c-0.12,0.092-0.272,0.104-0.434-0.01c-0.128-0.087-1.152-0.862-5.282-3.756c-0.995-0.696-1.486-0.983-1.728-1.149
				c-0.079-0.054-0.099-0.11-0.053-0.175l0.254-0.361c0.034-0.054,0.085-0.039,0.174,0.029l0.538,0.37
				c0.606,0.43,0.726,0.371,1.069-0.118l2.208-3.154l0.909-1.302c0.773-1.111,1.91-2.792,1.991-2.931
				c0.246-0.463,0.176-0.65-0.312-0.994l-0.482-0.337c-0.064-0.043-0.095-0.084-0.041-0.166l0.258-0.359
				c0.027-0.038,0.069-0.047,0.138-0.003c0.291,0.204,0.727,0.572,1.604,1.186l0.586,0.409c1.31,0.919,2.637,1.828,3.95,2.748
				c0.215,0.148,0.485,0.301,0.55,0.347c0.068,0.045,0.076,0.089,0.061,0.141c-0.078,0.222-0.769,2.453-0.82,2.616
				c-0.028,0.065-0.052,0.102-0.121,0.093l-0.276-0.034c-0.057-0.003-0.085-0.079-0.077-0.118c0.01-0.067-0.092-2.021-0.267-2.442
				c-0.152-0.382-0.412-0.803-0.76-1.066l-2.324-1.707L49.854,167.209z"/>
		</g>
		<g>
			<path fill="#205698" d="M69.406,180.208c-0.912-0.337-1.53-1.419-1.168-2.377c0.385-1.031,1.413-1.516,2.448-1.132
				c1.064,0.397,1.582,1.372,1.167,2.48C71.468,180.199,70.439,180.594,69.406,180.208z"/>
		</g>
		<g>
			<path fill="#205698" d="M87.57,188.826c-1.05-0.558-1.532-1.332-1.679-2.378c-0.114-0.747-0.059-1.834,0.175-3.948l0.42-3.845
				c0.063-0.561-0.023-0.833-0.521-0.887l-0.759-0.082c-0.092-0.012-0.104-0.045-0.096-0.158l0.038-0.355
				c0.012-0.098,0.035-0.13,0.165-0.118c0.163,0.018,0.939,0.153,2.201,0.293c1.256,0.137,2.031,0.175,2.209,0.198
				c0.129,0.015,0.145,0.048,0.139,0.11l-0.049,0.424c-0.012,0.08-0.028,0.106-0.145,0.098l-0.805-0.089
				c-0.466-0.054-0.772,0.225-0.842,0.575c-0.034,0.143-0.175,1.269-0.268,2.096l-0.115,1.064c-0.097,0.854-0.255,2.913-0.302,3.43
				c-0.061,0.745-0.017,1.516,0.296,2.104c0.501,0.938,1.498,1.344,2.433,1.45c0.921,0.098,1.885-0.106,2.517-0.626
				c0.702-0.607,1.017-1.554,1.15-2.748l0.38-3.45c0.135-1.23,0.203-2.167,0.198-2.575c0-0.428-0.228-0.745-0.642-0.793
				l-0.712-0.077c-0.101-0.012-0.106-0.06-0.101-0.142l0.045-0.386c0.011-0.08,0.028-0.109,0.124-0.106
				c0.164,0.018,0.899,0.146,1.979,0.267c1.111,0.121,1.632,0.127,1.776,0.153c0.148,0.016,0.154,0.081,0.15,0.131l-0.039,0.353
				c-0.012,0.1-0.035,0.161-0.117,0.152l-0.657-0.071c-0.599-0.064-0.697,0.379-0.768,0.568c-0.047,0.155-0.3,2.446-0.326,2.675
				c-0.025,0.226-0.367,3.047-0.486,3.67c-0.244,1.314-0.706,2.292-1.698,2.964c-0.707,0.525-1.729,0.789-3.134,0.634
				C88.871,189.31,88.075,189.107,87.57,188.826z"/>
		</g>
		<g>
			<path fill="#205698" d="M100.686,180.445c-0.056-0.954-0.577-1.464-1.159-1.442l-0.664,0.023
				c-0.077,0.003-0.101-0.057-0.103-0.106l-0.026-0.423c-0.004-0.063,0.005-0.1,0.093-0.1c0.161-0.015,0.501,0.015,1.604-0.051
				c0.551-0.033,0.889-0.086,1.081-0.101c0.212-0.013,0.346,0.047,0.486,0.188c0.083,0.094,3.475,3.985,3.661,4.199
				c0.192,0.218,3.133,3.407,3.553,3.902l0.063-0.002l-0.116-1.931c-0.09-1.442-0.146-2.232-0.228-3.042
				c-0.061-0.632-0.237-2.215-0.346-2.484c-0.157-0.397-0.475-0.608-0.935-0.579l-0.514,0.03c-0.063,0.006-0.099-0.027-0.104-0.106
				L107.004,178c0-0.062,0.029-0.098,0.093-0.106c0.228-0.015,0.747,0.003,1.786-0.062c0.97-0.057,1.354-0.128,1.566-0.137
				c0.117-0.008,0.135,0.038,0.135,0.104l0.026,0.405c0,0.065-0.026,0.115-0.085,0.121l-0.443,0.027
				c-0.439,0.022-0.583,0.309-0.571,0.928c0,1.089,0.092,2.695,0.155,3.746l0.361,6.062c0.018,0.228,0.012,0.391-0.05,0.394
				c-0.192,0.012-0.358-0.172-0.404-0.235c-0.018-0.032-1.052-1.173-2.132-2.377c-1.215-1.34-2.489-2.762-2.593-2.856
				c-0.187-0.148-3.39-3.71-3.492-3.834l-0.099,0.006l0.213,3.599c0.092,1.503,0.381,4.136,0.432,4.459
				c0.107,0.628,0.218,0.931,0.657,0.903l0.481-0.029c0.119-0.006,0.137,0.041,0.143,0.14l0.021,0.357
				c0.005,0.096-0.008,0.129-0.121,0.135c-0.163,0.012-1.139,0.023-1.578,0.047c-0.334,0.018-1.449,0.137-1.61,0.146
				c-0.066,0.006-0.088-0.03-0.088-0.11l-0.027-0.415c-0.004-0.053,0.008-0.103,0.092-0.105l0.549-0.035
				c0.473-0.028,0.641-0.232,0.671-1.032c0.014-0.312-0.069-2.158-0.236-5.041L100.686,180.445z"/>
		</g>
		<g>
			<path fill="#205698" d="M115.786,181.433c-0.076-0.385-0.694-3.24-0.76-3.475c-0.104-0.376-0.296-0.507-0.898-0.385l-0.923,0.184
				c-0.082,0.018-0.136-0.007-0.147-0.07l-0.086-0.431c-0.012-0.062,0.029-0.106,0.086-0.118c0.194-0.041,1.019-0.155,2.495-0.45
				c1.415-0.28,1.908-0.428,2.136-0.471c0.082-0.014,0.122,0.025,0.128,0.09l0.082,0.398c0.02,0.082-0.023,0.122-0.1,0.134
				l-0.746,0.153c-0.322,0.062-0.532,0.237-0.472,0.554c0.034,0.16,0.688,3.688,0.729,3.881l0.241,1.222
				c0.032,0.162,0.817,3.829,0.853,4.004c0.1,0.496,0.35,0.528,0.859,0.428l0.652-0.131c0.074-0.018,0.135,0.006,0.152,0.086
				l0.081,0.412c0.012,0.068-0.029,0.107-0.128,0.128c-0.187,0.034-0.83,0.117-2.222,0.391c-1.506,0.303-2.18,0.486-2.352,0.52
				c-0.081,0.016-0.134-0.009-0.146-0.068l-0.087-0.434c-0.018-0.064,0.029-0.104,0.104-0.118l0.895-0.179
				c0.318-0.065,0.635-0.18,0.617-0.601c-0.012-0.252-0.654-3.697-0.815-4.542L115.786,181.433z"/>
		</g>
		<g>
			<path fill="#205698" d="M120.487,175.794c-0.029-0.077-0.018-0.111,0.069-0.142c0.151-0.051,0.679-0.178,1.876-0.582
				c1.29-0.438,1.966-0.719,2.103-0.763c0.14-0.049,0.175-0.012,0.192,0.053l0.116,0.353c0.029,0.08,0.035,0.147-0.072,0.182
				l-0.74,0.251c-0.432,0.146-0.597,0.355-0.507,0.619c0.041,0.122,0.116,0.297,0.239,0.495c0.273,0.527,1.465,2.161,2.032,2.932
				c0.385,0.521,2.173,2.866,2.844,3.683l0.028-0.012c0.076-0.828,0.206-4.406,0.206-4.797c0.016-0.468,0-2.435,0-3.188
				c-0.006-0.426-0.012-0.734-0.083-0.953c-0.064-0.185-0.228-0.315-0.612-0.185l-0.396,0.139c-0.059,0.018-0.094-0.023-0.124-0.118
				l-0.121-0.35c-0.023-0.083-0.018-0.113,0.059-0.14c0.134-0.047,0.857-0.24,1.827-0.565c1.119-0.38,1.486-0.555,1.628-0.605
				c0.094-0.032,0.117-0.003,0.14,0.072l0.135,0.385c0.02,0.06,0.025,0.112-0.07,0.143l-0.42,0.142
				c-0.503,0.172-0.713,0.514-0.888,0.966c-0.228,0.633-0.391,4.198-0.432,4.931c-0.012,0.572-0.34,6.131-0.363,6.309
				c-0.018,0.145-0.068,0.248-0.146,0.274c-0.129,0.045-0.239-0.095-0.385-0.269c-0.97-1.242-3.405-4.332-3.79-4.818l-0.326-0.471
				c-0.742-0.963-2.222-2.946-2.577-3.344c-0.273-0.3-0.472-0.404-0.801-0.294l-0.402,0.134c-0.056,0.021-0.085-0.018-0.108-0.08
				L120.487,175.794z"/>
		</g>
		<g>
			<path fill="#205698" d="M138.023,174.509c0.117-0.057,1.617-0.929,1.769-1.05c0.381-0.29,0.434-0.469,0.326-0.979
				c-0.028-0.166-0.126-0.484-0.256-0.763c-0.035-0.073-0.006-0.124,0.053-0.157l0.361-0.176c0.071-0.037,0.13,0.005,0.147,0.073
				c0.085,0.267,0.707,1.443,0.824,1.656c0.268,0.501,0.684,1.162,0.876,1.447c0.041,0.074,0.023,0.118-0.023,0.157l-0.293,0.211
				c-0.062,0.053-0.121,0.026-0.187-0.066c-0.127-0.173-0.391-0.452-0.514-0.593c-0.244-0.256-0.515-0.386-0.911-0.231
				c-0.713,0.283-1.698,0.81-1.926,0.931l0.467,0.888c0.405,0.774,1.166,2.148,1.323,2.441c0.41,0.736,0.925,0.837,1.408,0.683
				c0.315-0.092,0.761-0.269,1.116-0.461c0.243-0.129,0.95-0.521,1.237-0.707c0.228-0.163,0.775-0.652,0.979-1.167
				c0.1-0.229,0.358-1.69,0.381-2.126c0-0.095,0.018-0.175,0.121-0.178l0.301,0.009c0.1,0.006,0.123,0.047,0.14,0.187l0.358,2.508
				c0.023,0.156-0.031,0.293-0.206,0.383c-0.146,0.076-1.299,0.634-5.761,2.992c-1.072,0.569-1.553,0.879-1.809,1.015
				c-0.086,0.047-0.146,0.041-0.181-0.029l-0.204-0.388c-0.029-0.061,0.006-0.096,0.104-0.149l0.573-0.305
				c0.659-0.348,0.665-0.478,0.379-1.011l-1.8-3.397l-0.74-1.408c-0.625-1.191-1.606-2.968-1.694-3.106
				c-0.303-0.427-0.501-0.45-1.028-0.169l-0.519,0.271c-0.07,0.036-0.116,0.042-0.163-0.041l-0.212-0.389
				c-0.016-0.041-0.004-0.082,0.066-0.123c0.314-0.164,0.839-0.389,1.785-0.887l0.63-0.335c1.423-0.751,2.834-1.516,4.252-2.27
				c0.228-0.123,0.484-0.292,0.554-0.334c0.078-0.037,0.119-0.023,0.158,0.012c0.165,0.17,1.836,1.806,1.953,1.924
				c0.046,0.051,0.069,0.092,0.022,0.155l-0.151,0.229c-0.029,0.05-0.11,0.036-0.14,0.018c-0.059-0.045-1.843-0.846-2.297-0.882
				c-0.408-0.041-0.906,0-1.297,0.193l-2.58,1.29L138.023,174.509z"/>
		</g>
		<g>
			<path fill="#205698" d="M147.14,167.832c-0.719-0.961-1.337-1.799-1.636-2.167c-0.327-0.42-0.649-0.521-0.976-0.284l-0.52,0.386
				c-0.063,0.05-0.11,0.024-0.151-0.027l-0.233-0.328c-0.054-0.063-0.06-0.102,0.006-0.151c0.115-0.083,0.551-0.345,1.639-1.163
				c0.727-0.539,1.912-1.477,2.146-1.654c1.072-0.804,2.179-1.116,3.023-1.014c0.739,0.099,1.421,0.498,1.78,0.98
				c1.211,1.626,0.923,2.792-0.464,4.396l0.015,0.024c0.402-0.116,0.761-0.019,0.97,0.05c0.282,0.055,2.192,0.694,2.42,0.789
				c0.163,0.081,1.879,0.644,2.264,0.641c0.416-0.006,0.729-0.201,1.099-0.475c0.093-0.067,0.146-0.023,0.181,0.029l0.21,0.285
				c0.058,0.077,0.075,0.126-0.012,0.192c-0.105,0.077-0.473,0.293-1.044,0.718c-0.375,0.278-0.836,0.664-1.022,0.824
				c-0.238-0.023-0.858-0.253-1.098-0.336c-0.222-0.082-1.846-0.793-1.988-0.85c-0.12-0.052-1.445-0.524-1.733-0.59
				c-0.636-0.154-1.213-0.273-1.967,0.29c-0.114,0.084-0.25,0.184-0.398,0.359l0.547,0.726c0.571,0.769,1.669,2.22,1.824,2.403
				c0.229,0.259,0.51,0.416,0.702,0.271l0.815-0.611c0.096-0.07,0.143-0.039,0.187,0.026l0.21,0.285
				c0.072,0.095,0.078,0.128-0.056,0.223c-0.137,0.107-0.49,0.31-1.728,1.232c-1.186,0.882-1.454,1.143-1.594,1.249
				c-0.107,0.077-0.135,0.039-0.181-0.026l-0.222-0.3c-0.055-0.064-0.084-0.106-0.018-0.152l0.536-0.396
				c0.286-0.216,0.439-0.468,0.175-0.821c-0.935-1.308-1.846-2.531-2.77-3.771L147.14,167.832z M149.264,168.25
				c0.233-0.109,0.379-0.199,0.632-0.386c2.365-1.764,1.607-3.729,1.199-4.274c-0.445-0.599-1.145-0.97-1.755-1.003
				c-0.812-0.025-1.523,0.208-2.604,1.009c-0.157,0.116-0.303,0.268-0.361,0.434c-0.046,0.133,0,0.325,0.151,0.535L149.264,168.25z"
				/>
		</g>
		<g>
			<path fill="#205698" d="M162.064,164.441c-0.242,0.035-0.35,0.064-0.401,0.129c-0.072,0.063-0.035,0.193,0.006,0.374
				c0.058,0.199,0.011,0.266-0.072,0.345c-0.062,0.07-0.175,0.07-0.284-0.079c-0.232-0.334-1.57-1.909-1.869-2.28
				c-0.059-0.078-0.035-0.102,0.012-0.146l0.187-0.157c0.041-0.048,0.089-0.048,0.159,0.017c0.379,0.358,0.775,0.716,1.733,0.924
				c0.889,0.202,1.827-0.115,2.461-0.742c0.693-0.689,1.143-1.979,0.114-3.02c-1.182-1.186-2.464-0.776-3.708-0.188
				c-0.478,0.229-1.596,0.765-2.604,0.735c-0.76-0.003-1.488-0.35-2.242-1.108c-0.571-0.575-0.775-1.494-0.752-2.181
				c0.029-0.807,0.443-1.536,1.061-2.153c0.655-0.652,1.354-0.957,1.641-1.061c0.163-0.044,0.21-0.113,0.21-0.229l0.012-0.287
				c0.012-0.099,0.023-0.158,0.083-0.215c0.057-0.056,0.181,0,0.286,0.104c0.396,0.403,1.718,1.428,1.98,1.669
				c0.058,0.06,0.069,0.095,0.035,0.151l-0.105,0.171c-0.023,0.045-0.059,0.055-0.104,0.036c-0.422-0.243-1.019-0.548-1.982-0.573
				c-0.642-0.026-1.207,0.21-1.745,0.754c-1.021,1.009-0.636,2.138-0.051,2.727c0.312,0.321,0.764,0.634,1.347,0.648
				c0.665,0,1.561-0.386,2.004-0.615c1.039-0.536,1.879-0.975,2.79-0.88c0.653,0.06,1.311,0.302,2.07,1.062
				c1.349,1.36,1.667,3.347,0.149,4.854C163.684,164.026,162.875,164.343,162.064,164.441z"/>
		</g>
		<g>
			<path fill="#205698" d="M165.178,151.982c-0.311-0.241-2.617-2.035-2.815-2.18c-0.318-0.216-0.554-0.192-0.94,0.291l-0.583,0.729
				c-0.053,0.064-0.111,0.082-0.155,0.041l-0.347-0.273c-0.044-0.041-0.044-0.101,0-0.15c0.117-0.154,0.677-0.767,1.617-1.945
				c0.903-1.122,1.195-1.558,1.331-1.737c0.057-0.062,0.117-0.053,0.163-0.018l0.325,0.259c0.056,0.053,0.056,0.11,0,0.172
				l-0.477,0.593c-0.206,0.257-0.257,0.524,0,0.729c0.123,0.104,2.89,2.39,3.041,2.511l0.976,0.784
				c0.125,0.106,3.079,2.415,3.219,2.528c0.393,0.316,0.608,0.175,0.929-0.226l0.42-0.522c0.053-0.063,0.106-0.078,0.169-0.029
				l0.328,0.268c0.053,0.041,0.047,0.095-0.012,0.171c-0.128,0.155-0.573,0.629-1.453,1.725c-0.964,1.204-1.366,1.779-1.477,1.916
				c-0.047,0.064-0.105,0.085-0.16,0.038l-0.336-0.273c-0.055-0.034-0.049-0.1,0.006-0.159l0.571-0.708
				c0.198-0.255,0.373-0.55,0.088-0.863c-0.169-0.181-2.875-2.416-3.545-2.956L165.178,151.982z"/>
		</g>
		<g>
			<path fill="#205698" d="M167.926,141.123l-0.21,0.346c-0.266,0.443-1.002,1.646-1.168,2.289
				c-0.187,0.741,0.527,1.749,0.855,2.212c0.053,0.071,0.041,0.124-0.012,0.182l-0.224,0.207c-0.041,0.035-0.081,0.068-0.144-0.012
				c-0.416-0.445-1.91-2.017-2.039-2.141c-0.171-0.14-0.171-0.218-0.147-0.272c0.049-0.071,0.09-0.104,0.159-0.133l0.233-0.104
				c0.338-0.137,0.463-0.251,0.723-0.646c0.475-0.715,0.883-1.261,1.684-2.563l0.402-0.665c0.925-1.506,1.231-2.137,1.616-2.831
				c0.172-0.313,0.247-0.521,0.247-0.839l-0.006-0.363c0.006-0.095,0.012-0.146,0.047-0.199c0.041-0.07,0.097-0.073,0.297,0.009
				c0.181,0.074,2.061,0.86,2.74,1.123c0.076,0.03,0.088,0.074,0.059,0.151l-0.076,0.258c-0.023,0.062-0.046,0.065-0.169,0.05
				c-0.328-0.05-1.653-0.29-2.155,0.034c-0.456,0.29-1.278,1.57-1.692,2.252l-0.241,0.385l3.953,2.411
				c0.194,0.124,4.069,2.495,4.316,2.624c0.361,0.183,0.637,0.198,0.841-0.135l0.533-0.871c0.073-0.125,0.126-0.11,0.22-0.053
				l0.291,0.174c0.072,0.045,0.1,0.086,0.031,0.209c-0.09,0.138-0.396,0.559-1.227,1.913c-0.814,1.332-1.129,1.934-1.243,2.132
				c-0.072,0.11-0.137,0.087-0.216,0.033l-0.265-0.157c-0.099-0.058-0.128-0.099-0.082-0.18l0.577-0.94
				c0.172-0.279,0.105-0.544-0.05-0.664c-0.381-0.282-4.633-2.887-4.896-3.045L167.926,141.123z"/>
		</g>
		<g>
			<path fill="#205698" d="M181.708,131.363c0.585,0.241,1.586,0.592,1.753,0.645c0.504,0.151,0.638-0.055,0.801-0.442l0.233-0.585
				c0.047-0.106,0.094-0.088,0.151-0.064l0.344,0.141c0.09,0.039,0.137,0.056,0.09,0.157c-0.07,0.181-0.357,0.747-0.873,2.01
				c-0.554,1.351-0.691,1.837-0.764,2.003c-0.022,0.06-0.079,0.068-0.149,0.039l-0.369-0.146c-0.059-0.027-0.093-0.058-0.059-0.151
				l0.298-0.732c0.165-0.392,0.064-0.575-0.157-0.681c-0.204-0.099-1.378-0.617-2.773-1.187l-0.877-0.355
				c-0.466,0.036-5.723,0.795-6.428,1.017c-0.306,0.099-0.581,0.392-0.681,0.631l-0.157,0.377c-0.035,0.089-0.082,0.089-0.146,0.06
				l-0.391-0.157c-0.059-0.029-0.082-0.051-0.047-0.142c0.053-0.138,0.385-0.825,0.764-1.737c0.634-1.551,0.809-2.108,0.866-2.257
				c0.041-0.092,0.076-0.095,0.123-0.074l0.373,0.151c0.078,0.029,0.128,0.071,0.093,0.161l-0.204,0.497
				c-0.181,0.446-0.069,0.563,0.315,0.65c0.259,0.053,4.277-0.461,5.31-0.562c-0.642-0.91-2.909-4.292-3.156-4.462
				c-0.233-0.162-0.528-0.373-0.787,0.259l-0.169,0.403c-0.035,0.089-0.082,0.086-0.173,0.054l-0.364-0.151
				c-0.058-0.024-0.081-0.054-0.046-0.147c0.063-0.146,0.355-0.748,0.77-1.753c0.361-0.888,0.45-1.234,0.507-1.364
				c0.041-0.106,0.078-0.109,0.136-0.083l0.362,0.148c0.087,0.035,0.128,0.066,0.087,0.175l-0.157,0.378
				c-0.088,0.225-0.1,0.516,0.037,0.867c0.161,0.416,2.954,4.696,3.548,5.605L181.708,131.363z"/>
		</g>
		<g>
			<path fill="#205698" d="M185.71,113.106c-0.163,0.979-1.127,1.81-2.153,1.636c-1.115-0.189-1.794-1.123-1.605-2.231
				c0.192-1.146,1.062-1.853,2.251-1.653C185.302,111.043,185.891,111.995,185.71,113.106z"/>
		</g>
	</g>
	<g>
		<path fill="#205698" d="M99.55,174.409c-41.472,0-75.212-33.739-75.212-75.212c0-41.471,33.74-75.21,75.212-75.21
			c41.471,0,75.211,33.739,75.211,75.21C174.761,140.67,141.021,174.409,99.55,174.409z M99.55,27.452
			c-39.561,0-71.746,32.187-71.746,71.745c0,39.56,32.186,71.745,71.746,71.745s71.744-32.186,71.744-71.745
			C171.294,59.639,139.11,27.452,99.55,27.452z"/>
	</g>
	<path fill="#205698" d="M99.936,196.07c-52.971,0-96.064-43.096-96.064-96.066c0-52.972,43.093-96.067,96.064-96.067
		c52.973,0,96.07,43.096,96.07,96.067C196.006,152.975,152.908,196.07,99.936,196.07z M99.936,7.401
		c-51.06,0-92.598,41.542-92.598,92.603c0,51.06,41.539,92.6,92.598,92.6s92.604-41.54,92.604-92.6
		C192.539,48.943,150.995,7.401,99.936,7.401z"/>
	<g>
		<path fill="#205698" d="M114.84,143.928c-1.138,0-1.725,0.789-1.725,2.062c0,1.373,0.797,2.387,1.849,2.387
			c0.443,0,0.828-0.101,1.084-0.281c0.31-0.25,0.292-1.109,0.292-1.746C116.34,145.06,116.048,143.928,114.84,143.928z"/>
		<g>
			<path fill="#205698" d="M97.911,103.499v28.12l-0.259,0.22h-9.334l-0.22-0.22v-25.457c0.695-2.228,2.919-4.307,5.36-4.417
				C95.287,101.491,96.776,102.258,97.911,103.499z"/>
		</g>
		<g>
			<path fill="#205698" d="M80.631,145.976c0-0.332-0.095-0.635-0.445-0.635c-0.192,0-0.446,0.012-0.873,0.096l-0.948,0.189
				c-0.099,0.018-0.176,0.018-0.213-0.035l-0.139-0.279c-0.034-0.057-0.017-0.111,0.118-0.166l4.715-1.651
				c0.137-0.04,0.231-0.082,0.366-0.082c0.12,0,0.176,0.097,0.176,0.204c0,0.116-0.056,2.291-0.056,4.077v0.583
				c0,0.722,0.017,3.104,0.017,3.261c0.018,0.717,0.102,0.815,1.067,0.815h0.699c0.135,0,0.193,0.042,0.193,0.112v0.355
				c0,0.074-0.059,0.1-0.215,0.1c-0.132,0-2.77-0.04-3.103-0.04c-0.561,0-3.3,0.04-3.393,0.04c-0.117,0-0.158-0.025-0.158-0.1
				v-0.371c0-0.084,0.118-0.097,0.269-0.097h0.509c1.068,0,1.354-0.042,1.394-0.749c0.043-0.582,0.02-2.105,0.02-2.605V145.976z"/>
		</g>
		<g>
			<path fill="#205698" d="M88.802,151.146c0-1.218,1.05-1.969,2.465-2.588c-1.591-0.824-2.542-1.29-2.542-2.484
				c0-1.12,1.473-2.661,4.443-2.661c2.038,0,3.492,0.918,3.492,1.899c0,1.053-0.561,1.675-2.482,2.467
				c1.728,0.655,2.755,1.398,2.755,2.771c0,1.153-1.555,2.54-4.267,2.54C89.834,153.09,88.802,152.047,88.802,151.146z
				 M94.545,150.952c0-0.803-0.675-1.303-2.601-2.065c-0.658,0.374-1.278,1.055-1.278,1.954c0,1.18,1.207,1.704,1.977,1.704
				C93.87,152.545,94.545,151.964,94.545,150.952z M91.188,145.726c0,0.736,0.563,1.099,2.23,1.774
				c0.7-0.347,1.318-0.958,1.318-1.814c0-0.929-0.639-1.666-1.762-1.637C91.752,144.049,91.188,144.87,91.188,145.726z"/>
		</g>
		<g>
			<path fill="#205698" d="M153.963,54.225l-0.025-0.188L45.431,54.034l-0.024,0.188c-0.032,0.242-3.161,24.629,1.926,50.945
				c2.99,15.468,8.189,28.567,15.455,38.939c9.089,12.974,21.45,21.686,36.744,25.894l0.277,0.01l0.03-0.007
				c15.29-4.208,27.651-12.918,36.741-25.893c7.266-10.371,12.465-23.471,15.455-38.939
				C157.123,78.854,153.994,54.468,153.963,54.225z M108.417,75.117c2.405,1.569,4.67,4.159,5.688,6.784
				c0.877,2.518,1.676,4.998,2.008,7.7c-0.548,0.509-1.242,0.069-1.751-0.111c-0.985-0.766-3.172-0.838-2.44-2.81
				c-0.148-1.751-1.168-3.135-1.316-4.888c-0.95-2.188-2.042-4.341-3.245-6.419C107.395,74.789,108.123,75.007,108.417,75.117z
				 M100.573,62.058l0.583,0.111c0.548,3.537,1.272,7.879,4.778,9.703c-0.55,1.02-1.753-0.147-2.664,0
				c-0.876-0.075-1.753-0.147-2.697-0.147V62.058z M76.927,95.073c-0.84-0.075-1.785,0.07-1.967,0.944
				c-0.146,1.678,1.458,2.773,2.552,3.613v36.077c-0.656,1.241-1.934,2.007-2.809,3.025l0.473,0.475l15.761-0.11l0.473-0.254
				c-1.132-0.622-2.516-1.129-3.753-1.753c-1.467-1.093-2.773-2.662-3.504-4.304l0.256-37.352c0.655-3.173,4.485-2.261,5.473-4.888
				c1.308-5.29-1.611-12.366,3.388-16.124c1.608-1.239,3.392-2.043,5.362-2.333l0.254,0.219l-0.146,21.74
				c-2.148,1.569-4.664,2.152-7.223,2.771l-0.106,0.146l0.223,0.22l6.999,0.108l0.254,0.257v67.557
				C40.972,149.034,49.498,58.654,49.498,58.654h49.24c0,0.946,0.696,2.201-0.583,2.455c-0.293,2.298,0,4.926-1.495,6.894
				c-4.742,6.058-13.713,8.245-15.283,16.234c-0.729,1.643-0.946,3.138-1.168,4.997c-0.875,0.911-2.225,2.007-2.587,3.282
				C77.477,93.43,78.022,94.706,76.927,95.073z M108.804,150.567c0,0.081-0.061,0.133-0.313,0.133h-1.143v1.986
				c0,0.152-0.039,0.193-0.273,0.193h-1.98c-0.169,0-0.233-0.015-0.233-0.155V150.7h-5.006c-0.347,0-0.583-0.097-0.583-0.26
				c0-0.226,0.197-0.403,0.355-0.539l6.943-6.267c0.117-0.111,0.271-0.223,0.504-0.223c0.2,0,0.273,0.097,0.273,0.471v5.557h1.221
				c0.132,0,0.235,0.059,0.235,0.126V150.567z M115.99,151.811c-1.103,0.666-1.943,0.969-3.107,1.208
				c-0.192,0.042-0.461,0.071-0.601,0.071c-0.151,0-0.31-0.047-0.31-0.21c0-0.101,0.117-0.193,0.251-0.237
				c1.631-0.447,3.457-1.942,3.859-3.869h-0.134c-0.292,0.17-0.968,0.403-2.13,0.403c-2.312,0-3.227-1.455-3.227-2.464
				c0-1.013,0.663-2.092,1.397-2.537c0.834-0.515,1.695-0.764,2.797-0.764c1.588,0,2.481,0.293,3.259,1.025
				c0.894,0.862,1.087,1.746,1.087,2.176C119.133,148.483,118.063,150.567,115.99,151.811z M121.002,97.405
				c-1.092,0.655-2.519,1.421-3.026,2.698v35.823c0.364,1.022,0.914,2.007,1.532,2.917c-2.263,0-4.674,0-6.788,0l-0.111-0.11
				c1.607-0.657,3.282-2.333,3.247-4.193l-0.11-35.605c-1.419-1.239-3.422-1.057-5.359-1.057c-0.947,0.511-2.406-0.107-2.913,1.17
				l0.103,37.244c0.404,0.838,1.096,1.677,1.863,2.223v0.329c-2.33,0-5.033,0.107-7.44-0.11c1.384-0.838,2.623-2.077,3.137-3.61
				V99.048c-0.916-1.207-2.229-2.446-3.979-2.081V75.594c2.299,2.951,3.174,6.71,4.562,10.139c1.857,3.285-0.181,8.683,3.974,10.505
				c1.645-0.035,3.941,0.766,5.143-0.691c1.313-0.84,0.181-3.102,1.863-3.396c0.764,1.643,1.683,3.539,3.502,4.451
				C120.452,96.857,121.326,96.713,121.002,97.405z"/>
			<path fill="#205698" d="M104.511,146.35l-3.141,2.813c-0.173,0.154-0.116,0.276,0.136,0.276h3.378v-3.061
				C104.884,146.184,104.686,146.184,104.511,146.35z"/>
		</g>
	</g>
</g>
</svg>
