<?xml version="1.0" encoding="utf-8"?>
<!-- Generator: Adobe Illustrator 16.0.4, SVG Export Plug-In . SVG Version: 6.00 Build 0)  -->
<!DOCTYPE svg PUBLIC "-//W3C//DTD SVG 1.1//EN" "http://www.w3.org/Graphics/SVG/1.1/DTD/svg11.dtd">
<svg version="1.1" xmlns="http://www.w3.org/2000/svg" xmlns:xlink="http://www.w3.org/1999/xlink" x="0px" y="0px"
	 width="468.789px" height="79.322px" viewBox="0 0 468.789 79.322" enable-background="new 0 0 468.789 79.322"
	 xml:space="preserve">
<g id="Layer_2">
</g>
<g id="Layer_1">
	<g>
		<path d="M261.86,9.431c0,0.599,0.101,3.259,0.399,5.188c-0.133,0.399-1.03,0.532-1.264,0.233
			c-0.897-3.093-3.026-4.756-6.251-4.756c-3.69,0-7.648,3.159-7.648,9.777c0,6.617,3.824,10.175,7.815,10.175
			c4.022,0,5.886-2.893,6.783-5.154c0.267-0.266,1.064-0.167,1.264,0.233c-0.231,2.46-0.798,4.456-1.264,5.22
			c-1.796,0.499-4.157,1.23-6.749,1.23c-3.259,0-6.584-0.765-8.945-2.527c-2.395-1.829-4.223-4.588-4.223-8.712
			c0-4.057,1.728-6.916,4.023-8.812c2.36-1.96,5.753-2.959,9.21-2.959C258.402,8.566,260.863,9.365,261.86,9.431z"/>
		<path d="M264.054,24.661c-0.033-4.755,3.724-7.382,7.648-7.382c3.924,0,7.448,2.395,7.448,7.083c0,4.854-3.558,7.15-7.647,7.15
			C267.545,31.512,264.087,29.25,264.054,24.661z M268.842,23.93c0,3.493,1.098,6.053,3.026,6.053c1.896,0,2.527-2.161,2.493-5.155
			c-0.032-3.226-0.964-6.019-2.858-6.019C270.039,18.809,268.842,20.305,268.842,23.93z"/>
		<path d="M281.642,22.167c0-1.329,0-1.728-0.632-2.127l-0.465-0.298c-0.233-0.2-0.233-0.798,0-0.998
			c1.563-0.432,3.958-1.33,4.922-1.928c0.267,0,0.465,0.099,0.599,0.298c0,0.466-0.099,1.264-0.099,1.497
			c0,0.199,0.066,0.266,0.165,0.266c0.101,0,0.433-0.166,0.633-0.266c0.732-0.433,2.293-1.331,3.823-1.331
			c2.76,0,4.157,1.896,4.157,4.19v5.72c0,2.328,0.134,2.593,1.329,2.727l0.533,0.066c0.266,0.199,0.266,0.964-0.033,1.164
			c-1.031-0.065-2.429-0.099-4.023-0.099c-1.33,0-2.628,0.033-3.591,0.099c-0.299-0.199-0.299-0.964-0.033-1.164l0.599-0.1
			c0.765-0.133,0.897-0.366,0.897-2.195v-5.62c0-1.296-0.665-2.361-2.328-2.361c-0.931,0-1.597,0.433-1.861,0.798
			c-0.2,0.233-0.267,0.632-0.267,1.232v5.952c0,1.829,0.134,2.128,0.965,2.228l0.532,0.066c0.267,0.199,0.267,0.964-0.033,1.164
			c-1.029-0.065-2.095-0.099-3.691-0.099c-1.396,0-2.76,0.033-3.923,0.099c-0.299-0.199-0.299-0.964-0.034-1.164l0.533-0.066
			c1.197-0.133,1.329-0.399,1.329-2.727v-5.024H281.642z"/>
		<path d="M299.93,22.167c0-1.329,0-1.728-0.632-2.127l-0.465-0.298c-0.234-0.2-0.234-0.798,0-0.998
			c1.562-0.432,3.957-1.33,4.921-1.928c0.267,0,0.466,0.099,0.599,0.298c0,0.466-0.099,1.264-0.099,1.497
			c0,0.199,0.066,0.266,0.166,0.266s0.432-0.166,0.632-0.266c0.732-0.433,2.295-1.331,3.823-1.331c2.761,0,4.157,1.896,4.157,4.19
			v5.72c0,2.328,0.134,2.593,1.33,2.727l0.532,0.066c0.267,0.199,0.267,0.964-0.033,1.164c-1.031-0.065-2.428-0.099-4.022-0.099
			c-1.331,0-2.629,0.033-3.592,0.099c-0.3-0.199-0.3-0.964-0.033-1.164l0.599-0.1c0.766-0.133,0.897-0.366,0.897-2.195v-5.62
			c0-1.296-0.665-2.361-2.327-2.361c-0.931,0-1.597,0.433-1.862,0.798c-0.199,0.233-0.267,0.632-0.267,1.232v5.952
			c0,1.829,0.134,2.128,0.965,2.228l0.533,0.066c0.266,0.199,0.266,0.964-0.033,1.164c-1.031-0.065-2.096-0.099-3.691-0.099
			c-1.396,0-2.761,0.033-3.924,0.099c-0.299-0.199-0.299-0.964-0.033-1.164l0.532-0.066c1.198-0.133,1.329-0.399,1.329-2.727v-5.024
			H299.93z"/>
		<path d="M320.744,23.166c-0.766,0-0.831,0.065-0.831,0.598c0,2.494,1.596,4.922,4.688,4.922c0.931,0,2.195-0.2,3.093-1.729
			c0.365-0.066,0.864,0.2,0.864,0.765c-1.364,2.827-3.823,3.792-5.82,3.792c-4.489,0-6.915-3.16-6.915-6.785
			c0-4.189,3.026-7.449,7.183-7.449c3.459,0,5.321,2.229,5.321,4.789c0,0.632-0.167,1.098-1.197,1.098H320.744z M322.938,21.702
			c0.466,0,1-0.066,1.365-0.299c0.166-0.099,0.232-0.433,0.232-0.765c0-1.097-0.632-1.83-1.763-1.83
			c-1.396,0-2.593,1.33-2.593,2.395c0,0.465,0.465,0.499,1.529,0.499H322.938z"/>
		<path d="M341.56,17.845c0.433,0.366,0.698,0.831,0.698,1.729c0,0.998-0.466,1.895-0.864,1.895c-0.167,0-0.466-0.066-0.532-0.166
			c-0.931-1.33-2.229-2.495-3.425-2.495c-2.161,0-3.326,2.461-3.326,4.756c0,2.627,1.696,5.287,4.756,5.287
			c1.23,0,2.229-0.399,2.96-1.629c0.398-0.033,0.863,0.2,0.863,0.731c-0.731,1.663-2.726,3.559-5.885,3.559
			c-4.19,0-7.05-2.793-7.05-6.718c0-4.722,3.823-7.516,8.313-7.516C339.198,17.279,340.661,17.512,341.56,17.845z"/>
		<path d="M349.904,19.541c-0.433,0-0.466,0.033-0.466,0.765v4.988c0,1.862,0,3.924,2.328,3.924c0.465,0,0.997-0.233,1.396-0.498
			c0.333,0.099,0.532,0.466,0.465,0.865c-0.93,0.997-2.727,1.929-4.788,1.929c-2.76,0-3.725-1.597-3.725-3.792v-7.417
			c0-0.697-0.033-0.765-0.632-0.765h-1.03c-0.366-0.134-0.466-0.798-0.199-1.031c1.03-0.366,1.961-0.965,2.759-1.496
			c0.6-0.433,1.431-1.13,2.461-2.594c0.232-0.133,0.832-0.1,0.998,0.166v2.494c0,0.631,0.034,0.665,0.632,0.665h2.959
			c0.167,0.134,0.267,0.333,0.267,0.632c0,0.366-0.1,0.965-0.433,1.165H349.904z"/>
		<path d="M360.411,27.188c0,2.328,0.133,2.628,1.23,2.727l0.632,0.066c0.266,0.199,0.266,0.964-0.034,1.164
			c-1.164-0.065-2.46-0.099-3.989-0.099c-1.496,0-2.895,0.034-3.991,0.099c-0.298-0.199-0.298-0.964-0.033-1.164l0.633-0.066
			c1.098-0.099,1.23-0.399,1.23-2.727v-5.022c0-1.329,0-1.728-0.632-2.127l-0.466-0.298c-0.232-0.2-0.232-0.798,0-0.998
			c1.564-0.432,3.925-1.33,4.923-1.928c0.265,0,0.465,0.099,0.598,0.298c-0.066,0.998-0.099,2.461-0.099,3.958v6.118H360.411z
			 M360.678,12.159c0,1.596-1.23,2.427-2.494,2.427c-1.463,0-2.328-0.997-2.328-2.36c0-1.463,1.164-2.427,2.494-2.427
			C359.746,9.798,360.678,10.828,360.678,12.159z"/>
		<path d="M375.641,17.845c0.433,0.366,0.697,0.831,0.697,1.729c0,0.998-0.464,1.895-0.864,1.895c-0.167,0-0.465-0.066-0.532-0.166
			c-0.931-1.33-2.229-2.495-3.425-2.495c-2.161,0-3.324,2.461-3.324,4.756c0,2.627,1.695,5.287,4.754,5.287
			c1.231,0,2.229-0.399,2.96-1.629c0.399-0.033,0.863,0.2,0.863,0.731c-0.73,1.663-2.726,3.559-5.885,3.559
			c-4.189,0-7.05-2.793-7.05-6.718c0-4.722,3.823-7.516,8.313-7.516C373.278,17.279,374.742,17.512,375.641,17.845z"/>
		<path d="M391.633,26.656c0,1.962,0.1,2.828,0.898,2.828c0.432,0,0.931-0.133,1.329-0.266c0.3,0.066,0.333,1.264-0.099,1.431
			c-3.26,0.133-6.052,1.197-6.153,1.197c-0.232-0.033-0.365-0.2-0.398-0.399c0.066-0.399,0.1-0.931,0.1-1.197
			c0-0.2-0.167-0.333-0.367-0.333c-1.295,0.831-2.46,1.597-4.521,1.597c-2.761,0-3.892-1.431-3.892-4.256v-5.653
			c0-1.762-0.199-1.928-0.997-2.161l-0.433-0.133c-0.232-0.299-0.199-0.931,0.133-1.165c1.098-0.033,2.261-0.133,3.227-0.298
			c0.998-0.166,1.962-0.566,2.095-0.566c0.2,0,0.366,0.233,0.399,0.4c-0.065,0.831-0.1,1.728-0.1,2.925v5.487
			c0,1.597,0.233,2.993,2.361,2.993c0.93,0,1.463-0.433,1.728-0.632c0.232-0.166,0.367-0.666,0.367-0.998V21.17
			c0-1.33-0.232-1.629-1.432-1.796l-0.464-0.066c-0.266-0.233-0.232-1.031,0.166-1.165c1.197-0.065,2.395-0.2,3.459-0.333
			c1.164-0.166,2.161-0.533,2.361-0.533c0.133,0,0.298,0.167,0.332,0.4c-0.033,0.599-0.1,1.696-0.1,2.926V26.656L391.633,26.656z"/>
		<path d="M401.073,19.541c-0.431,0-0.464,0.033-0.464,0.765v4.988c0,1.862,0,3.924,2.327,3.924c0.466,0,0.998-0.233,1.397-0.498
			c0.333,0.099,0.532,0.466,0.465,0.865c-0.931,0.997-2.726,1.929-4.788,1.929c-2.761,0-3.726-1.597-3.726-3.792v-7.417
			c0-0.697-0.032-0.765-0.631-0.765h-1.031c-0.365-0.134-0.465-0.798-0.199-1.031c1.03-0.366,1.962-0.965,2.76-1.496
			c0.599-0.433,1.43-1.13,2.46-2.594c0.233-0.133,0.832-0.1,0.999,0.166v2.494c0,0.631,0.032,0.665,0.632,0.665h2.959
			c0.166,0.134,0.266,0.333,0.266,0.632c0,0.366-0.1,0.965-0.433,1.165H401.073z"/>
		<path fill="#FFFFFF" d="M259.961,7.531c0,0.599,0.1,3.259,0.398,5.188c-0.133,0.399-1.029,0.532-1.264,0.233
			c-0.896-3.093-3.026-4.756-6.251-4.756c-3.69,0-7.648,3.159-7.648,9.776s3.824,10.176,7.815,10.176
			c4.022,0,5.886-2.894,6.784-5.154c0.266-0.266,1.063-0.167,1.263,0.233c-0.231,2.46-0.798,4.456-1.263,5.22
			c-1.797,0.499-4.157,1.23-6.75,1.23c-3.259,0-6.584-0.765-8.945-2.527c-2.395-1.829-4.223-4.588-4.223-8.712
			c0-4.057,1.729-6.916,4.023-8.812c2.36-1.961,5.753-2.959,9.211-2.959C256.502,6.667,258.963,7.465,259.961,7.531z"/>
		<path fill="#FFFFFF" d="M262.153,22.761c-0.033-4.755,3.725-7.382,7.648-7.382c3.925,0,7.449,2.395,7.449,7.083
			c0,4.855-3.558,7.15-7.648,7.15C265.645,29.612,262.188,27.35,262.153,22.761z M266.941,22.03c0,3.493,1.098,6.053,3.026,6.053
			c1.896,0,2.527-2.161,2.494-5.155c-0.032-3.226-0.964-6.019-2.859-6.019C268.139,16.909,266.941,18.405,266.941,22.03z"/>
		<path fill="#FFFFFF" d="M279.742,20.267c0-1.329,0-1.728-0.632-2.128l-0.465-0.298c-0.234-0.2-0.234-0.798,0-0.998
			c1.562-0.432,3.957-1.33,4.921-1.928c0.267,0,0.465,0.099,0.599,0.298c0,0.466-0.099,1.264-0.099,1.496
			c0,0.2,0.066,0.266,0.166,0.266s0.432-0.166,0.632-0.266c0.732-0.432,2.294-1.33,3.823-1.33c2.761,0,4.157,1.896,4.157,4.19v5.72
			c0,2.328,0.134,2.593,1.33,2.727l0.532,0.066c0.267,0.199,0.267,0.964-0.032,1.164c-1.032-0.065-2.429-0.099-4.023-0.099
			c-1.331,0-2.629,0.033-3.592,0.099c-0.299-0.199-0.299-0.964-0.033-1.164l0.6-0.1c0.764-0.133,0.896-0.365,0.896-2.194v-5.62
			c0-1.297-0.665-2.361-2.327-2.361c-0.932,0-1.597,0.433-1.862,0.798c-0.199,0.233-0.267,0.632-0.267,1.231v5.953
			c0,1.829,0.134,2.128,0.965,2.228l0.533,0.066c0.266,0.2,0.266,0.965-0.033,1.164c-1.03-0.065-2.096-0.099-3.691-0.099
			c-1.396,0-2.761,0.033-3.924,0.099c-0.299-0.199-0.299-0.964-0.033-1.164l0.532-0.066c1.198-0.133,1.329-0.399,1.329-2.727v-5.024
			H279.742z"/>
		<path fill="#FFFFFF" d="M298.029,20.267c0-1.329,0-1.728-0.632-2.128l-0.465-0.298c-0.233-0.2-0.233-0.798,0-0.998
			c1.563-0.432,3.958-1.33,4.922-1.928c0.266,0,0.465,0.099,0.599,0.298c0,0.466-0.099,1.264-0.099,1.496
			c0,0.2,0.065,0.266,0.165,0.266c0.101,0,0.433-0.166,0.633-0.266c0.731-0.432,2.294-1.33,3.823-1.33
			c2.76,0,4.157,1.896,4.157,4.19v5.72c0,2.328,0.134,2.593,1.329,2.727l0.532,0.066c0.267,0.199,0.267,0.964-0.033,1.164
			c-1.03-0.065-2.428-0.099-4.022-0.099c-1.33,0-2.628,0.033-3.591,0.099c-0.3-0.199-0.3-0.964-0.034-1.164l0.599-0.1
			c0.767-0.133,0.898-0.365,0.898-2.194v-5.62c0-1.297-0.665-2.361-2.328-2.361c-0.931,0-1.597,0.433-1.861,0.798
			c-0.2,0.233-0.267,0.632-0.267,1.231v5.953c0,1.829,0.134,2.128,0.965,2.228l0.532,0.066c0.267,0.2,0.267,0.965-0.033,1.164
			c-1.031-0.065-2.095-0.099-3.691-0.099c-1.396,0-2.76,0.033-3.924,0.099c-0.299-0.199-0.299-0.964-0.033-1.164l0.532-0.066
			c1.198-0.133,1.33-0.399,1.33-2.727v-5.024H298.029z"/>
		<path fill="#FFFFFF" d="M318.844,21.265c-0.766,0-0.831,0.065-0.831,0.599c0,2.494,1.596,4.922,4.688,4.922
			c0.931,0,2.195-0.199,3.094-1.729c0.365-0.066,0.863,0.2,0.863,0.765c-1.363,2.828-3.823,3.792-5.819,3.792
			c-4.489,0-6.916-3.16-6.916-6.785c0-4.189,3.026-7.449,7.183-7.449c3.46,0,5.321,2.229,5.321,4.789
			c0,0.632-0.167,1.097-1.197,1.097H318.844z M321.038,19.802c0.466,0,0.999-0.067,1.364-0.299c0.166-0.099,0.233-0.432,0.233-0.765
			c0-1.097-0.632-1.83-1.763-1.83c-1.396,0-2.593,1.33-2.593,2.395c0,0.465,0.464,0.499,1.528,0.499H321.038z"/>
		<path fill="#FFFFFF" d="M339.659,15.945c0.433,0.366,0.699,0.831,0.699,1.729c0,0.998-0.466,1.896-0.865,1.896
			c-0.167,0-0.466-0.066-0.532-0.166c-0.931-1.33-2.229-2.495-3.424-2.495c-2.162,0-3.326,2.461-3.326,4.755
			c0,2.628,1.695,5.287,4.755,5.287c1.23,0,2.229-0.399,2.96-1.629c0.398-0.033,0.863,0.2,0.863,0.731
			c-0.73,1.663-2.726,3.559-5.884,3.559c-4.191,0-7.05-2.793-7.05-6.718c0-4.722,3.822-7.516,8.312-7.516
			C337.299,15.379,338.762,15.612,339.659,15.945z"/>
		<path fill="#FFFFFF" d="M348.005,17.641c-0.433,0-0.466,0.033-0.466,0.765v4.988c0,1.862,0,3.924,2.327,3.924
			c0.465,0,0.997-0.233,1.396-0.498c0.333,0.099,0.532,0.465,0.466,0.865c-0.931,0.997-2.727,1.929-4.788,1.929
			c-2.76,0-3.725-1.597-3.725-3.792v-7.417c0-0.697-0.034-0.765-0.632-0.765h-1.031c-0.366-0.134-0.466-0.798-0.199-1.031
			c1.03-0.366,1.961-0.965,2.759-1.496c0.6-0.433,1.431-1.131,2.462-2.594c0.231-0.133,0.832-0.1,0.998,0.166v2.494
			c0,0.632,0.033,0.666,0.632,0.666h2.958c0.167,0.134,0.267,0.333,0.267,0.632c0,0.366-0.1,0.965-0.433,1.165H348.005z"/>
		<path fill="#FFFFFF" d="M358.511,25.289c0,2.328,0.133,2.627,1.23,2.727l0.632,0.066c0.267,0.199,0.267,0.964-0.033,1.164
			c-1.164-0.065-2.461-0.099-3.989-0.099c-1.497,0-2.895,0.033-3.991,0.099c-0.299-0.199-0.299-0.964-0.033-1.164l0.633-0.066
			c1.097-0.099,1.229-0.399,1.229-2.727v-5.022c0-1.329,0-1.728-0.632-2.128l-0.466-0.298c-0.232-0.2-0.232-0.798,0-0.998
			c1.564-0.432,3.925-1.33,4.923-1.928c0.266,0,0.465,0.099,0.599,0.298c-0.067,0.998-0.1,2.461-0.1,3.958v6.118H358.511z
			 M358.777,10.259c0,1.596-1.23,2.427-2.494,2.427c-1.463,0-2.327-0.997-2.327-2.36c0-1.463,1.163-2.428,2.493-2.428
			C357.846,7.897,358.777,8.928,358.777,10.259z"/>
		<path fill="#FFFFFF" d="M373.74,15.945c0.433,0.366,0.697,0.831,0.697,1.729c0,0.998-0.464,1.896-0.863,1.896
			c-0.168,0-0.465-0.066-0.533-0.166c-0.931-1.33-2.229-2.495-3.424-2.495c-2.162,0-3.325,2.461-3.325,4.755
			c0,2.628,1.696,5.287,4.755,5.287c1.23,0,2.229-0.399,2.959-1.629c0.4-0.033,0.864,0.2,0.864,0.731
			c-0.731,1.663-2.726,3.559-5.885,3.559c-4.189,0-7.05-2.793-7.05-6.718c0-4.722,3.823-7.516,8.313-7.516
			C371.379,15.379,372.842,15.612,373.74,15.945z"/>
		<path fill="#FFFFFF" d="M389.733,24.756c0,1.962,0.099,2.827,0.897,2.827c0.432,0,0.931-0.133,1.33-0.266
			c0.299,0.066,0.333,1.264-0.1,1.431c-3.259,0.133-6.052,1.197-6.152,1.197c-0.233-0.033-0.366-0.2-0.399-0.399
			c0.066-0.399,0.101-0.931,0.101-1.197c0-0.201-0.167-0.333-0.368-0.333c-1.295,0.831-2.46,1.597-4.521,1.597
			c-2.76,0-3.891-1.431-3.891-4.257v-5.653c0-1.762-0.199-1.928-0.997-2.161l-0.433-0.133c-0.233-0.299-0.199-0.931,0.133-1.165
			c1.098-0.033,2.261-0.133,3.227-0.298c0.997-0.166,1.961-0.566,2.094-0.566c0.2,0,0.366,0.233,0.399,0.4
			c-0.065,0.831-0.099,1.728-0.099,2.925v5.487c0,1.597,0.232,2.992,2.36,2.992c0.93,0,1.464-0.432,1.728-0.632
			c0.233-0.166,0.368-0.665,0.368-0.997V19.27c0-1.33-0.233-1.629-1.432-1.795l-0.464-0.066c-0.267-0.233-0.233-1.031,0.166-1.165
			c1.196-0.065,2.395-0.2,3.458-0.333c1.165-0.167,2.161-0.533,2.361-0.533c0.133,0,0.298,0.167,0.332,0.4
			c-0.033,0.599-0.099,1.696-0.099,2.926V24.756L389.733,24.756z"/>
		<path fill="#FFFFFF" d="M399.174,17.641c-0.432,0-0.464,0.033-0.464,0.765v4.988c0,1.862,0,3.924,2.326,3.924
			c0.466,0,0.999-0.233,1.397-0.498c0.333,0.099,0.532,0.465,0.465,0.865c-0.931,0.997-2.726,1.929-4.788,1.929
			c-2.76,0-3.725-1.597-3.725-3.792v-7.417c0-0.697-0.032-0.765-0.632-0.765h-1.031c-0.365-0.134-0.465-0.798-0.199-1.031
			c1.031-0.366,1.962-0.965,2.76-1.496c0.599-0.433,1.43-1.131,2.461-2.594c0.232-0.133,0.831-0.1,0.998,0.166v2.494
			c0,0.632,0.032,0.666,0.632,0.666h2.96c0.166,0.134,0.265,0.333,0.265,0.632c0,0.366-0.099,0.965-0.433,1.165H399.174z"/>
	</g>
	<g>
		<g>
			<path d="M247.898,63.777c-3.061,0-4.954-0.864-5.654-1.264c-0.631-0.731-1.062-3.126-1.062-5.386
				c0.231-0.433,0.997-0.466,1.264-0.101c0.664,2.162,2.894,5.221,5.719,5.221c2.462,0,3.592-1.696,3.592-3.358
				c0-2.693-2.527-4.291-4.522-5.287c-2.396-1.197-5.021-3.191-5.021-6.483c-0.033-3.759,2.894-6.354,7.714-6.354
				c1.099,0,2.463,0.134,3.791,0.533c0.433,0.134,0.732,0.2,1.131,0.267c0.267,0.731,0.599,2.526,0.599,4.754
				c-0.166,0.399-0.997,0.433-1.297,0.101c-0.565-1.696-1.995-4.124-4.389-4.124c-2.195,0-3.392,1.43-3.392,3.093
				c0,1.528,1.363,2.927,3.026,3.79l2.195,1.164c2.062,1.098,4.688,3.027,4.688,6.685C256.277,61.117,252.919,63.777,247.898,63.777
				z"/>
			<path d="M263.792,51.739c-0.433,0-0.466,0.033-0.466,0.765v4.989c0,1.862,0,3.924,2.328,3.924c0.466,0,0.998-0.233,1.397-0.499
				c0.332,0.1,0.532,0.466,0.465,0.865c-0.931,0.997-2.727,1.929-4.789,1.929c-2.76,0-3.724-1.597-3.724-3.792v-7.416
				c0-0.698-0.033-0.765-0.632-0.765h-1.03c-0.367-0.135-0.465-0.799-0.201-1.031c1.032-0.367,1.963-0.965,2.761-1.496
				c0.599-0.432,1.431-1.131,2.461-2.594c0.233-0.134,0.831-0.101,0.997,0.166v2.494c0,0.632,0.033,0.665,0.632,0.665h2.96
				c0.167,0.134,0.266,0.334,0.266,0.632c0,0.366-0.099,0.966-0.432,1.164H263.792z"/>
			<path d="M279.519,58.688c-0.132,2.263,0.832,2.86,1.497,2.86c0.398,0,0.731-0.1,1.264-0.398c0.299,0.065,0.498,0.465,0.398,0.765
				c-0.398,0.533-1.96,1.797-3.856,1.797c-1.165,0-1.896-0.4-2.793-1.164c-0.233-0.201-0.367-0.268-0.534-0.268
				c-0.165,0-0.365,0.135-0.697,0.367c-0.599,0.433-1.596,1.064-2.826,1.064c-1.929,0-3.726-1.164-3.726-3.493
				c0-1.695,1.031-2.726,3.46-3.459c1.263-0.398,2.195-0.664,3.125-0.929c0.6-0.167,0.766-0.401,0.799-0.666
				c0.032-0.366,0.066-0.731,0.066-1.131c0-1.264-0.499-2.859-1.93-2.859c-0.798,0-1.496,0.465-1.728,1.896
				c-0.067,0.532-0.266,0.831-0.566,1.064c-0.499,0.365-1.796,0.765-2.396,0.765c-0.564,0-0.765-0.366-0.765-0.831
				c0-0.865,0.798-1.929,1.596-2.561c1.131-0.897,3.228-2.029,5.587-2.029c2.794,0,4.424,1.398,4.257,4.822L279.519,58.688z
				 M275.529,57.824c0.034-0.531,0-0.632-0.233-0.599c-1.495,0.2-2.792,0.765-2.792,2.328c0,1.064,0.766,1.995,1.695,1.995
				c1.031,0,1.231-0.598,1.264-1.63L275.529,57.824z"/>
			<path d="M288.596,51.739c-0.432,0-0.465,0.033-0.465,0.765v4.989c0,1.862,0,3.924,2.328,3.924c0.466,0,0.997-0.233,1.396-0.499
				c0.333,0.1,0.533,0.466,0.465,0.865c-0.93,0.997-2.727,1.929-4.787,1.929c-2.761,0-3.727-1.597-3.727-3.792v-7.416
				c0-0.698-0.032-0.765-0.631-0.765h-1.031c-0.365-0.135-0.465-0.799-0.198-1.031c1.029-0.367,1.961-0.965,2.759-1.496
				c0.6-0.432,1.431-1.131,2.46-2.594c0.234-0.134,0.833-0.101,0.999,0.166v2.494c0,0.632,0.033,0.665,0.632,0.665h2.96
				c0.165,0.134,0.266,0.334,0.266,0.632c0,0.366-0.101,0.966-0.433,1.164H288.596z"/>
			<path d="M297.974,55.364c-0.767,0-0.831,0.065-0.831,0.598c0,2.494,1.596,4.923,4.688,4.923c0.93,0,2.194-0.2,3.092-1.729
				c0.366-0.066,0.865,0.2,0.865,0.765c-1.365,2.828-3.823,3.792-5.82,3.792c-4.49,0-6.916-3.16-6.916-6.785
				c0-4.189,3.027-7.449,7.184-7.449c3.458,0,5.32,2.229,5.32,4.789c0,0.632-0.166,1.098-1.196,1.098H297.974z M300.168,53.901
				c0.465,0,0.998-0.067,1.364-0.299c0.165-0.1,0.231-0.433,0.231-0.766c0-1.098-0.631-1.83-1.762-1.83
				c-1.396,0-2.594,1.33-2.594,2.395c0,0.466,0.466,0.5,1.53,0.5H300.168z"/>
			<path d="M317.556,46.086c0-3.094-0.199-3.292-1.695-3.592l-0.831-0.166c-0.266-0.2-0.299-0.932,0.065-1.131
				c1.597,0.066,3.259,0.1,4.854,0.1c1.631,0,3.26-0.033,4.855-0.1c0.265,0.199,0.265,0.931,0,1.131l-0.799,0.133
				c-1.497,0.267-1.696,0.533-1.696,3.625v7.682c0,3.891,0.433,8.18,5.487,8.18c4.256,0,5.554-3.725,5.554-8.28v-4.022
				c0-2.694-0.134-5.222-0.498-6.086c-0.3-0.697-1.03-0.898-1.929-1.064l-0.898-0.166c-0.266-0.266-0.199-0.932,0-1.131
				c1.797,0.066,3.094,0.1,4.456,0.1c1.23,0,2.462-0.033,3.725-0.1c0.2,0.199,0.266,0.865,0,1.131l-0.598,0.133
				c-0.865,0.199-1.497,0.4-1.797,1.098c-0.366,0.864-0.499,3.392-0.499,6.086v3.724c0,3.125-0.299,5.986-2.128,8.015
				c-1.463,1.563-3.89,2.395-6.584,2.395c-2.527,0-4.788-0.398-6.585-1.862c-1.729-1.429-2.461-3.892-2.461-7.515L317.556,46.086
				L317.556,46.086z"/>
			<path d="M338.005,54.365c0-1.329,0-1.728-0.632-2.128l-0.466-0.298c-0.232-0.2-0.232-0.799,0-0.998
				c1.563-0.433,3.957-1.33,4.922-1.928c0.266,0,0.465,0.099,0.6,0.298c0,0.466-0.101,1.264-0.101,1.496
				c0,0.199,0.067,0.266,0.167,0.266s0.433-0.165,0.632-0.266c0.732-0.432,2.295-1.33,3.824-1.33c2.76,0,4.156,1.896,4.156,4.19
				v5.72c0,2.328,0.133,2.594,1.33,2.728l0.532,0.065c0.266,0.2,0.266,0.964-0.033,1.165c-1.031-0.066-2.428-0.1-4.024-0.1
				c-1.328,0-2.626,0.033-3.59,0.1c-0.299-0.201-0.299-0.965-0.033-1.165l0.599-0.099c0.765-0.134,0.897-0.366,0.897-2.195v-5.62
				c0-1.297-0.664-2.36-2.327-2.36c-0.931,0-1.597,0.433-1.862,0.798c-0.199,0.232-0.267,0.631-0.267,1.231v5.952
				c0,1.828,0.134,2.128,0.965,2.228l0.533,0.066c0.266,0.2,0.266,0.965-0.034,1.164c-1.03-0.065-2.095-0.099-3.69-0.099
				c-1.397,0-2.76,0.033-3.924,0.099c-0.299-0.199-0.299-0.964-0.033-1.164l0.532-0.066c1.197-0.133,1.33-0.399,1.33-2.726v-5.024
				H338.005z"/>
			<path d="M360.614,59.388c0,2.326,0.133,2.627,1.229,2.726l0.632,0.066c0.267,0.2,0.267,0.965-0.033,1.164
				c-1.163-0.065-2.46-0.099-3.99-0.099c-1.495,0-2.893,0.033-3.989,0.099c-0.3-0.199-0.3-0.964-0.033-1.164l0.632-0.066
				c1.097-0.099,1.23-0.399,1.23-2.726v-5.022c0-1.329,0-1.728-0.632-2.128l-0.465-0.298c-0.233-0.2-0.233-0.799,0-0.998
				c1.563-0.433,3.923-1.33,4.921-1.928c0.266,0,0.466,0.099,0.6,0.298c-0.066,0.998-0.1,2.461-0.1,3.958v6.118H360.614z
				 M360.881,44.357c0,1.596-1.229,2.427-2.493,2.427c-1.464,0-2.329-0.997-2.329-2.361c0-1.462,1.165-2.427,2.495-2.427
				C359.949,41.996,360.881,43.027,360.881,44.357z"/>
			<path d="M361.512,51.007c-0.299-0.232-0.334-1.03,0.099-1.164c1.231,0.066,2.361,0.1,4.124,0.1c1.23,0,2.461-0.066,3.692-0.1
				c0.298,0.167,0.265,0.998,0.064,1.164l-0.531,0.134c-0.399,0.1-0.565,0.133-0.565,0.333c0,0.199,0.133,0.665,0.298,1.165
				c0.666,1.828,1.396,3.558,2.095,5.153c0.733-1.663,1.564-3.425,2.263-5.453c0.133-0.332,0.199-0.631,0.199-0.831
				c0-0.166-0.233-0.266-0.799-0.399l-0.465-0.1c-0.299-0.199-0.299-0.997,0.032-1.164c1.064,0.066,1.763,0.1,2.728,0.1
				c1.064,0,1.829-0.066,2.561-0.1c0.366,0.167,0.298,0.965,0.065,1.164l-0.565,0.1c-0.997,0.167-1.264,0.566-1.929,1.829
				c-1.729,3.425-3.226,6.983-4.756,10.542c-0.166,0.133-0.432,0.233-0.764,0.233c-0.3,0-0.599-0.101-0.798-0.233
				c-1.729-4.19-2.429-5.786-4.524-10.209c-0.798-1.63-0.997-1.895-1.828-2.096L361.512,51.007z"/>
			<path d="M381.861,55.364c-0.767,0-0.832,0.065-0.832,0.598c0,2.494,1.596,4.923,4.689,4.923c0.931,0,2.195-0.2,3.092-1.729
				c0.366-0.066,0.865,0.2,0.865,0.765c-1.363,2.828-3.823,3.792-5.819,3.792c-4.489,0-6.917-3.16-6.917-6.785
				c0-4.189,3.027-7.449,7.184-7.449c3.458,0,5.32,2.229,5.32,4.789c0,0.632-0.166,1.098-1.196,1.098H381.861z M384.055,53.901
				c0.465,0,0.998-0.067,1.364-0.299c0.166-0.1,0.232-0.433,0.232-0.766c0-1.098-0.632-1.83-1.763-1.83
				c-1.396,0-2.593,1.33-2.593,2.395c0,0.466,0.465,0.5,1.529,0.5H384.055z"/>
			<path d="M392.634,54.434c0-1.33,0-1.729-0.632-2.128l-0.466-0.299c-0.232-0.2-0.232-0.799,0-0.999
				c1.53-0.432,3.824-1.328,4.855-1.994c0.266,0,0.466,0.099,0.598,0.298c-0.065,0.665-0.132,1.131-0.132,1.431
				c0,0.231,0.065,0.333,0.332,0.398c0.897-0.565,1.862-1.663,3.259-1.663c0.898,0,1.83,0.698,1.83,1.962
				c0,1.53-1.063,2.161-2.128,2.161c-0.466,0-0.864-0.199-1.297-0.599c-0.766-0.632-1.064-0.665-1.264-0.665
				c-0.466,0-0.632,0.732-0.632,1.996v5.055c0,2.326,0.134,2.593,1.23,2.692l1.063,0.1c0.267,0.2,0.267,0.965-0.033,1.164
				c-1.597-0.065-2.926-0.099-4.489-0.099c-1.364,0-2.827,0.033-3.924,0.099c-0.299-0.199-0.299-0.964-0.033-1.164l0.632-0.066
				c1.098-0.099,1.23-0.399,1.23-2.726L392.634,54.434L392.634,54.434z"/>
			<path d="M403.173,62.679c-0.366-0.664-0.599-2.262-0.532-3.757c0.199-0.332,0.931-0.365,1.13-0.066
				c0.433,1.363,1.696,3.325,3.392,3.325c0.997,0,1.729-0.598,1.729-1.729c0-1.229-1.064-1.929-2.196-2.493
				c-1.994-0.999-3.424-2.196-3.424-4.191c0-2.893,2.428-4.29,5.286-4.29c1.696,0,3.192,0.433,3.559,0.698
				c0.333,0.732,0.498,2.062,0.498,3.326c-0.134,0.365-0.965,0.365-1.164,0.133c-0.665-1.929-1.496-2.628-2.593-2.628
				c-0.965,0-1.663,0.566-1.663,1.464c0,0.765,0.632,1.396,2.128,2.128c2.262,1.097,3.658,2.494,3.658,4.655
				c-0.033,2.96-2.561,4.456-5.687,4.456C405.4,63.711,404.072,63.379,403.173,62.679z"/>
			<path d="M419.865,59.388c0,2.326,0.133,2.627,1.23,2.726l0.632,0.066c0.267,0.2,0.267,0.965-0.033,1.164
				c-1.164-0.065-2.46-0.099-3.99-0.099c-1.496,0-2.894,0.033-3.991,0.099c-0.298-0.199-0.298-0.964-0.031-1.164l0.632-0.066
				c1.096-0.099,1.229-0.399,1.229-2.726v-5.022c0-1.329,0-1.728-0.632-2.128l-0.465-0.298c-0.233-0.2-0.233-0.799,0-0.998
				c1.562-0.433,3.924-1.33,4.921-1.928c0.267,0,0.466,0.099,0.599,0.298c-0.065,0.998-0.099,2.461-0.099,3.958v6.118H419.865z
				 M420.131,44.357c0,1.596-1.23,2.427-2.493,2.427c-1.464,0-2.328-0.997-2.328-2.361c0-1.462,1.164-2.427,2.494-2.427
				C419.199,41.996,420.131,43.027,420.131,44.357z"/>
			<path d="M429.273,51.739c-0.431,0-0.465,0.033-0.465,0.765v4.989c0,1.862,0,3.924,2.328,3.924c0.465,0,0.997-0.233,1.396-0.499
				c0.333,0.1,0.532,0.466,0.466,0.865c-0.932,0.997-2.727,1.929-4.789,1.929c-2.761,0-3.725-1.597-3.725-3.792v-7.416
				c0-0.698-0.033-0.765-0.632-0.765h-1.03c-0.366-0.135-0.466-0.799-0.199-1.031c1.03-0.367,1.961-0.965,2.759-1.496
				c0.599-0.432,1.43-1.131,2.461-2.594c0.232-0.134,0.831-0.101,0.999,0.166v2.494c0,0.632,0.031,0.665,0.632,0.665h2.958
				c0.167,0.134,0.266,0.334,0.266,0.632c0,0.366-0.099,0.966-0.433,1.164H429.273z"/>
			<path d="M432.465,51.007c-0.232-0.232-0.232-1.03,0.1-1.164c1.197,0.066,2.627,0.1,4.39,0.1c1.23,0,2.494-0.033,3.725-0.1
				c0.333,0.134,0.366,0.931,0.099,1.164l-0.665,0.134c-0.931,0.2-0.997,0.333-0.997,0.632c0,0.399,0.365,1.264,0.997,2.96
				c0.366,0.93,1.098,2.959,1.497,3.79c0.365-0.698,0.698-1.463,1.03-2.195l0.599-1.363c0.698-1.598,1.23-2.992,1.23-3.359
				c0-0.231-0.333-0.398-0.731-0.465l-0.665-0.133c-0.298-0.233-0.267-1.064,0.1-1.164c0.731,0.065,1.729,0.099,3.226,0.099
				c0.864,0,1.729-0.033,2.594-0.099c0.333,0.133,0.366,0.964,0.065,1.164l-0.632,0.066c-0.664,0.065-1.229,0.332-1.528,0.732
				c-0.399,0.531-1.23,1.96-1.963,3.49l-1.761,3.625c-1.165,2.395-3.858,8.014-5.055,10.474c-0.698,1.496-1.629,2.161-2.859,2.195
				c-1.797,0.032-2.128-1.098-2.128-1.995c0-0.998,0.73-1.729,1.895-1.729h0.798c0.798,0,1.298-0.267,1.63-0.698
				c0.366-0.498,0.633-1.131,0.966-1.829c0.199-0.398,0.464-0.997,0.464-1.398c0-0.43-0.099-1.062-0.631-2.427l-3.191-8.047
				c-0.632-1.598-0.932-2.195-1.997-2.36L432.465,51.007z"/>
		</g>
		<g>
			<path fill="#FFFFFF" d="M245.998,61.878c-3.06,0-4.954-0.865-5.653-1.264c-0.631-0.732-1.063-3.127-1.063-5.387
				c0.232-0.433,0.997-0.466,1.264-0.101c0.664,2.162,2.894,5.221,5.72,5.221c2.461,0,3.591-1.696,3.591-3.358
				c0-2.693-2.527-4.291-4.521-5.287c-2.396-1.196-5.022-3.191-5.022-6.483c-0.033-3.759,2.894-6.353,7.715-6.353
				c1.099,0,2.462,0.134,3.79,0.533c0.433,0.133,0.733,0.2,1.131,0.267c0.267,0.731,0.599,2.527,0.599,4.754
				c-0.166,0.398-0.997,0.432-1.297,0.1c-0.564-1.695-1.994-4.124-4.388-4.124c-2.196,0-3.393,1.43-3.393,3.094
				c0,1.527,1.364,2.926,3.026,3.789l2.195,1.165c2.062,1.098,4.688,3.027,4.688,6.684
				C254.377,59.217,251.019,61.878,245.998,61.878z"/>
			<path fill="#FFFFFF" d="M261.892,49.839c-0.432,0-0.466,0.034-0.466,0.765v4.989c0,1.862,0,3.924,2.328,3.924
				c0.466,0,0.998-0.233,1.398-0.498c0.332,0.099,0.531,0.466,0.465,0.864c-0.931,0.997-2.727,1.929-4.789,1.929
				c-2.76,0-3.725-1.597-3.725-3.791v-7.417c0-0.697-0.033-0.765-0.631-0.765h-1.031c-0.366-0.134-0.465-0.799-0.2-1.031
				c1.031-0.366,1.962-0.965,2.76-1.495c0.6-0.433,1.431-1.131,2.461-2.595c0.233-0.133,0.832-0.1,0.998,0.166v2.494
				c0,0.632,0.033,0.665,0.632,0.665h2.959c0.167,0.134,0.267,0.334,0.267,0.632c0,0.366-0.1,0.966-0.433,1.164H261.892z"/>
			<path fill="#FFFFFF" d="M277.619,56.789c-0.133,2.262,0.831,2.86,1.496,2.86c0.399,0,0.732-0.101,1.264-0.399
				c0.3,0.066,0.498,0.465,0.399,0.765c-0.399,0.533-1.961,1.797-3.857,1.797c-1.165,0-1.896-0.399-2.793-1.164
				c-0.233-0.2-0.366-0.268-0.533-0.268c-0.165,0-0.366,0.135-0.698,0.368c-0.598,0.432-1.596,1.063-2.825,1.063
				c-1.929,0-3.727-1.164-3.727-3.493c0-1.694,1.032-2.726,3.46-3.458c1.264-0.399,2.196-0.664,3.125-0.93
				c0.6-0.167,0.766-0.4,0.799-0.665c0.033-0.366,0.066-0.732,0.066-1.131c0-1.264-0.498-2.86-1.929-2.86
				c-0.798,0-1.497,0.466-1.729,1.896c-0.066,0.531-0.266,0.831-0.565,1.063c-0.5,0.366-1.797,0.765-2.396,0.765
				c-0.565,0-0.765-0.365-0.765-0.831c0-0.864,0.798-1.928,1.596-2.561c1.131-0.897,3.227-2.029,5.587-2.029
				c2.793,0,4.423,1.398,4.256,4.822L277.619,56.789z M273.63,55.925c0.033-0.532,0-0.632-0.234-0.599
				c-1.495,0.199-2.792,0.765-2.792,2.327c0,1.064,0.767,1.996,1.695,1.996c1.031,0,1.231-0.599,1.264-1.63L273.63,55.925z"/>
			<path fill="#FFFFFF" d="M286.696,49.839c-0.433,0-0.465,0.034-0.465,0.765v4.989c0,1.862,0,3.924,2.327,3.924
				c0.466,0,0.997-0.233,1.396-0.498c0.333,0.099,0.533,0.466,0.465,0.864c-0.93,0.997-2.726,1.929-4.787,1.929
				c-2.76,0-3.726-1.597-3.726-3.791v-7.417c0-0.697-0.033-0.765-0.631-0.765h-1.032c-0.365-0.134-0.465-0.799-0.198-1.031
				c1.03-0.366,1.961-0.965,2.759-1.495c0.6-0.433,1.431-1.131,2.461-2.595c0.233-0.133,0.833-0.1,0.998,0.166v2.494
				c0,0.632,0.033,0.665,0.633,0.665h2.959c0.165,0.134,0.266,0.334,0.266,0.632c0,0.366-0.101,0.966-0.433,1.164H286.696z"/>
			<path fill="#FFFFFF" d="M296.073,53.464c-0.767,0-0.831,0.066-0.831,0.599c0,2.493,1.596,4.923,4.688,4.923
				c0.93,0,2.195-0.201,3.093-1.729c0.365-0.067,0.864,0.199,0.864,0.765c-1.364,2.827-3.823,3.791-5.819,3.791
				c-4.49,0-6.917-3.16-6.917-6.784c0-4.189,3.027-7.45,7.184-7.45c3.459,0,5.321,2.229,5.321,4.789
				c0,0.632-0.166,1.098-1.197,1.098H296.073z M298.268,52.001c0.465,0,0.998-0.066,1.364-0.299c0.165-0.1,0.232-0.433,0.232-0.766
				c0-1.098-0.631-1.829-1.762-1.829c-1.396,0-2.594,1.329-2.594,2.395c0,0.466,0.466,0.499,1.529,0.499H298.268z"/>
			<path fill="#FFFFFF" d="M315.656,44.186c0-3.093-0.199-3.291-1.696-3.591l-0.831-0.166c-0.266-0.201-0.299-0.932,0.065-1.131
				c1.597,0.066,3.26,0.1,4.855,0.1c1.63,0,3.259-0.033,4.854-0.1c0.266,0.2,0.266,0.93,0,1.131l-0.799,0.133
				c-1.496,0.266-1.695,0.533-1.695,3.624v7.682c0,3.891,0.432,8.18,5.487,8.18c4.255,0,5.554-3.725,5.554-8.279v-4.023
				c0-2.693-0.134-5.221-0.499-6.086c-0.299-0.697-1.03-0.897-1.929-1.063l-0.897-0.166c-0.267-0.267-0.2-0.932,0-1.131
				c1.797,0.066,3.093,0.1,4.456,0.1c1.229,0,2.461-0.033,3.725-0.1c0.199,0.2,0.266,0.865,0,1.131l-0.599,0.133
				c-0.864,0.199-1.496,0.399-1.797,1.097c-0.365,0.865-0.498,3.393-0.498,6.086v3.725c0,3.124-0.299,5.985-2.128,8.015
				c-1.464,1.562-3.891,2.395-6.585,2.395c-2.526,0-4.788-0.399-6.585-1.863c-1.729-1.429-2.46-3.891-2.46-7.515L315.656,44.186
				L315.656,44.186z"/>
			<path fill="#FFFFFF" d="M336.105,52.465c0-1.328,0-1.728-0.632-2.127l-0.466-0.298c-0.233-0.201-0.233-0.799,0-0.999
				c1.563-0.432,3.957-1.33,4.922-1.928c0.265,0,0.465,0.099,0.599,0.298c0,0.466-0.1,1.264-0.1,1.497
				c0,0.199,0.066,0.265,0.167,0.265c0.099,0,0.432-0.165,0.632-0.265c0.731-0.433,2.294-1.331,3.824-1.331
				c2.76,0,4.156,1.896,4.156,4.191v5.719c0,2.329,0.132,2.594,1.329,2.728l0.532,0.066c0.267,0.199,0.267,0.964-0.033,1.164
				c-1.03-0.065-2.427-0.1-4.023-0.1c-1.329,0-2.627,0.034-3.591,0.1c-0.299-0.2-0.299-0.965-0.033-1.164l0.6-0.1
				c0.765-0.134,0.896-0.365,0.896-2.195v-5.62c0-1.297-0.664-2.36-2.327-2.36c-0.931,0-1.597,0.433-1.862,0.798
				c-0.199,0.232-0.266,0.631-0.266,1.231v5.952c0,1.829,0.133,2.129,0.965,2.228l0.532,0.067c0.267,0.199,0.267,0.965-0.033,1.163
				c-1.031-0.065-2.095-0.099-3.69-0.099c-1.398,0-2.761,0.033-3.925,0.099c-0.299-0.198-0.299-0.964-0.033-1.163l0.532-0.067
				c1.198-0.133,1.331-0.398,1.331-2.726v-5.024H336.105z"/>
			<path fill="#FFFFFF" d="M358.714,57.487c0,2.327,0.133,2.628,1.23,2.726l0.632,0.067c0.266,0.199,0.266,0.965-0.033,1.163
				c-1.164-0.064-2.461-0.099-3.99-0.099c-1.496,0-2.893,0.034-3.989,0.099c-0.3-0.198-0.3-0.964-0.034-1.163l0.632-0.067
				c1.097-0.098,1.23-0.398,1.23-2.726v-5.022c0-1.328,0-1.728-0.632-2.127l-0.465-0.298c-0.232-0.201-0.232-0.799,0-0.999
				c1.563-0.432,3.924-1.33,4.921-1.928c0.267,0,0.466,0.099,0.601,0.298c-0.067,0.998-0.101,2.462-0.101,3.958v6.118H358.714z
				 M358.981,42.457c0,1.596-1.23,2.427-2.494,2.427c-1.464,0-2.328-0.997-2.328-2.36c0-1.462,1.164-2.427,2.494-2.427
				C358.049,40.096,358.981,41.127,358.981,42.457z"/>
			<path fill="#FFFFFF" d="M359.612,49.107c-0.3-0.233-0.334-1.031,0.099-1.164c1.23,0.065,2.36,0.099,4.123,0.099
				c1.23,0,2.462-0.065,3.692-0.099c0.298,0.167,0.265,0.998,0.065,1.164l-0.532,0.134c-0.398,0.099-0.565,0.133-0.565,0.333
				c0,0.198,0.134,0.664,0.299,1.164c0.665,1.828,1.396,3.558,2.095,5.153c0.732-1.662,1.564-3.424,2.262-5.453
				c0.134-0.332,0.199-0.631,0.199-0.831c0-0.165-0.232-0.266-0.799-0.399l-0.465-0.099c-0.299-0.199-0.299-0.997,0.033-1.164
				c1.063,0.065,1.763,0.099,2.728,0.099c1.063,0,1.828-0.065,2.561-0.099c0.365,0.167,0.298,0.965,0.064,1.164l-0.564,0.099
				c-0.998,0.167-1.264,0.566-1.93,1.83c-1.728,3.424-3.226,6.982-4.755,10.542c-0.166,0.133-0.433,0.232-0.765,0.232
				c-0.3,0-0.599-0.1-0.798-0.232c-1.729-4.19-2.429-5.786-4.523-10.209c-0.798-1.63-0.997-1.896-1.829-2.096L359.612,49.107z"/>
			<path fill="#FFFFFF" d="M379.961,53.464c-0.767,0-0.831,0.066-0.831,0.599c0,2.493,1.596,4.923,4.688,4.923
				c0.931,0,2.195-0.201,3.093-1.729c0.366-0.067,0.864,0.199,0.864,0.765c-1.363,2.827-3.823,3.791-5.818,3.791
				c-4.49,0-6.918-3.16-6.918-6.784c0-4.189,3.027-7.45,7.184-7.45c3.459,0,5.32,2.229,5.32,4.789c0,0.632-0.166,1.098-1.196,1.098
				H379.961z M382.155,52.001c0.465,0,0.997-0.066,1.363-0.299c0.166-0.1,0.233-0.433,0.233-0.766c0-1.098-0.632-1.829-1.763-1.829
				c-1.396,0-2.593,1.329-2.593,2.395c0,0.466,0.465,0.499,1.528,0.499H382.155z"/>
			<path fill="#FFFFFF" d="M390.734,52.533c0-1.33,0-1.729-0.632-2.128l-0.466-0.299c-0.233-0.199-0.233-0.799,0-0.998
				c1.529-0.433,3.824-1.329,4.854-1.995c0.267,0,0.466,0.099,0.599,0.298c-0.066,0.665-0.133,1.131-0.133,1.431
				c0,0.232,0.065,0.333,0.332,0.399c0.898-0.566,1.863-1.664,3.259-1.664c0.898,0,1.831,0.699,1.831,1.963
				c0,1.529-1.064,2.16-2.129,2.16c-0.465,0-0.864-0.198-1.297-0.599c-0.765-0.632-1.063-0.665-1.264-0.665
				c-0.465,0-0.632,0.733-0.632,1.997v5.054c0,2.327,0.134,2.594,1.23,2.692l1.064,0.101c0.266,0.199,0.266,0.965-0.033,1.163
				c-1.597-0.064-2.927-0.099-4.489-0.099c-1.365,0-2.828,0.034-3.925,0.099c-0.299-0.198-0.299-0.964-0.032-1.163l0.632-0.067
				c1.098-0.098,1.229-0.398,1.229-2.726V52.533L390.734,52.533z"/>
			<path fill="#FFFFFF" d="M401.273,60.779c-0.367-0.664-0.599-2.262-0.533-3.758c0.199-0.332,0.931-0.365,1.13-0.066
				c0.433,1.363,1.696,3.326,3.392,3.326c0.998,0,1.729-0.599,1.729-1.729c0-1.23-1.063-1.929-2.195-2.494
				c-1.995-0.999-3.425-2.195-3.425-4.191c0-2.893,2.428-4.29,5.286-4.29c1.696,0,3.192,0.433,3.56,0.699
				c0.333,0.731,0.498,2.062,0.498,3.325c-0.134,0.366-0.965,0.366-1.165,0.133c-0.665-1.929-1.496-2.627-2.593-2.627
				c-0.965,0-1.662,0.565-1.662,1.463c0,0.766,0.632,1.397,2.127,2.128c2.262,1.097,3.659,2.494,3.659,4.655
				c-0.033,2.96-2.561,4.456-5.688,4.456C403.5,61.811,402.172,61.479,401.273,60.779z"/>
			<path fill="#FFFFFF" d="M417.966,57.487c0,2.327,0.133,2.628,1.23,2.726l0.632,0.067c0.266,0.199,0.266,0.965-0.034,1.163
				c-1.164-0.064-2.46-0.099-3.99-0.099c-1.496,0-2.894,0.034-3.991,0.099c-0.297-0.198-0.297-0.964-0.031-1.163l0.632-0.067
				c1.096-0.098,1.23-0.398,1.23-2.726v-5.022c0-1.328,0-1.728-0.632-2.127l-0.466-0.298c-0.233-0.201-0.233-0.799,0-0.999
				c1.563-0.432,3.924-1.33,4.922-1.928c0.266,0,0.466,0.099,0.598,0.298c-0.065,0.998-0.098,2.462-0.098,3.958v6.118H417.966z
				 M418.231,42.457c0,1.596-1.231,2.427-2.494,2.427c-1.463,0-2.328-0.997-2.328-2.36c0-1.462,1.165-2.427,2.494-2.427
				C417.3,40.096,418.231,41.127,418.231,42.457z"/>
			<path fill="#FFFFFF" d="M427.374,49.839c-0.432,0-0.465,0.034-0.465,0.765v4.989c0,1.862,0,3.924,2.327,3.924
				c0.465,0,0.998-0.233,1.396-0.498c0.333,0.099,0.532,0.466,0.466,0.864c-0.932,0.997-2.727,1.929-4.789,1.929
				c-2.76,0-3.724-1.597-3.724-3.791v-7.417c0-0.697-0.033-0.765-0.632-0.765h-1.031c-0.366-0.134-0.465-0.799-0.199-1.031
				c1.031-0.366,1.962-0.965,2.759-1.495c0.599-0.433,1.43-1.131,2.461-2.595c0.232-0.133,0.831-0.1,0.999,0.166v2.494
				c0,0.632,0.031,0.665,0.632,0.665h2.959c0.167,0.134,0.265,0.334,0.265,0.632c0,0.366-0.098,0.966-0.432,1.164H427.374z"/>
			<path fill="#FFFFFF" d="M430.565,49.107c-0.233-0.233-0.233-1.031,0.099-1.164c1.198,0.065,2.628,0.099,4.391,0.099
				c1.23,0,2.493-0.033,3.724-0.099c0.333,0.133,0.366,0.931,0.1,1.164l-0.665,0.134c-0.931,0.199-0.998,0.333-0.998,0.632
				c0,0.398,0.366,1.264,0.998,2.959c0.366,0.93,1.098,2.96,1.496,3.791c0.365-0.698,0.698-1.463,1.03-2.196l0.599-1.362
				c0.699-1.598,1.231-2.993,1.231-3.359c0-0.232-0.333-0.399-0.732-0.465l-0.665-0.134c-0.298-0.232-0.266-1.064,0.101-1.163
				c0.73,0.064,1.729,0.098,3.225,0.098c0.864,0,1.729-0.033,2.594-0.098c0.333,0.132,0.366,0.964,0.066,1.163l-0.632,0.066
				c-0.664,0.066-1.23,0.332-1.529,0.732c-0.398,0.531-1.23,1.96-1.962,3.491l-1.761,3.624c-1.166,2.395-3.858,8.014-5.056,10.474
				c-0.697,1.496-1.629,2.161-2.859,2.196c-1.797,0.032-2.128-1.098-2.128-1.996c0-0.997,0.731-1.729,1.896-1.729h0.798
				c0.798,0,1.297-0.266,1.629-0.698c0.366-0.497,0.633-1.13,0.966-1.829c0.199-0.398,0.465-0.997,0.465-1.397
				c0-0.431-0.1-1.063-0.632-2.427l-3.191-8.048c-0.632-1.598-0.932-2.194-1.996-2.359L430.565,49.107z"/>
		</g>
	</g>
	<g>
		<g>
			<path d="M54.493,23.267c-0.587,0.672-2.099,0.756-2.687,0.168c-1.427-5.29-5.206-12.259-16.29-12.259
				c-10.664,0-21.412,7.557-21.412,24.771c0,17.885,11.168,26.616,22,26.616c10.58,0,15.199-7.053,17.55-12.512
				c0.755-0.756,2.099-0.42,2.519,0.336c-0.588,5.627-2.855,11.168-4.031,12.764c-1.007,0.168-2.015,0.505-2.939,0.757
				c-1.847,0.588-7.641,2.016-13.099,2.016c-8.313,0-15.45-1.68-21.496-5.627C7.806,55.849,2.684,48.205,2.684,37.206
				c0-9.824,4.366-17.465,10.58-22.252c6.213-4.702,14.694-7.137,23.175-7.137c4.786,0,10.58,0.84,14.527,1.847
				c1.008,0.252,1.596,0.336,2.351,0.504C53.485,12.1,53.653,17.054,54.493,23.267z"/>
			<path d="M67.084,44.681c-1.595,0-1.763,0.084-1.763,1.092c0,7.557,5.206,13.602,12.679,13.602c3.359,0,6.13-1.092,8.061-4.197
				c0.84-0.252,1.764,0.588,1.848,1.344c-2.855,6.717-9.069,9.236-14.191,9.236c-9.74,0-16.206-7.223-16.206-16.795
				c0-9.488,6.466-18.641,17.717-18.641c6.214,0,12.596,4.032,12.596,11.336c0,0.756-0.084,1.26-0.42,1.932
				c-0.504,0.756-2.435,1.092-5.794,1.092H67.084L67.084,44.681z M74.81,41.319c2.435,0,3.526-0.252,4.114-0.588
				c0.504-0.336,0.84-1.008,0.84-1.763c0-3.021-1.932-5.458-5.542-5.458c-5.626,0-8.229,5.458-8.229,7.221
				c0,0.336,0.168,0.588,1.175,0.588H74.81z"/>
			<path d="M102.097,54.588c0,6.213,0.336,7.222,3.191,7.642l1.259,0.168c0.588,0.588,0.504,2.1-0.168,2.436
				c-2.939-0.168-5.793-0.252-8.9-0.252c-2.687,0-5.542,0.084-9.069,0.252c-0.672-0.336-0.756-1.848-0.168-2.436l1.847-0.252
				c2.855-0.42,3.191-1.345,3.191-7.558V42.244c0-3.778,0-4.786-2.099-6.045l-1.008-0.589c-0.251-0.336-0.251-1.512,0.084-1.932
				c3.611-1.008,8.229-3.022,10.916-4.535c0.588,0,0.924,0.336,1.092,0.672c-0.168,1.596-0.168,3.191-0.168,3.863
				c0,0.588,0.252,0.756,0.756,0.84c3.946-2.184,6.297-4.199,11.503-4.199c6.802,0,9.993,4.703,9.993,11.252v13.016
				c0,6.213,0.336,7.222,3.191,7.558l1.931,0.252c0.588,0.588,0.504,2.1-0.168,2.436c-3.527-0.168-6.382-0.252-9.489-0.252
				c-2.771,0-5.626,0.084-8.564,0.252c-0.672-0.336-0.756-1.848-0.168-2.436l1.259-0.168c2.855-0.42,3.191-1.429,3.191-7.642V43
				c0-4.282-1.679-7.642-6.718-7.642c-2.603,0-4.702,1.344-5.542,2.604c-1.092,1.512-1.176,2.268-1.176,5.374L102.097,54.588
				L102.097,54.588z"/>
			<path d="M142.231,35.19c-1.511,0-1.595,0.168-1.595,2.854v12.931c0,5.291,0.756,9.992,6.13,9.992c1.679,0,2.687-0.588,4.03-1.512
				c0.756,0.084,1.26,0.756,1.092,1.68c-1.679,2.352-5.542,4.619-10.664,4.619c-7.977,0-9.405-4.619-9.405-10.496V38.214
				c0-2.938-0.168-3.021-1.511-3.021h-2.939c-0.84-0.42-1.008-1.765-0.252-2.269c2.855-1.092,4.786-2.184,6.634-3.527
				c1.595-1.175,3.442-2.938,4.618-5.206c0.756-0.504,1.931-0.252,2.351,0.42v5.038c0,1.344,0,1.596,1.595,1.596h8.313
				c0.504,0.252,0.672,0.924,0.672,1.764c-0.084,1.008-0.42,1.764-1.091,2.184h-7.978V35.19z"/>
			<path d="M156.673,42.244c0-3.778,0-4.786-2.099-6.045l-1.008-0.589c-0.252-0.336-0.252-1.512,0.084-1.932
				c3.611-1.176,8.061-3.022,10.58-4.535c0.504,0,1.008,0.252,1.176,0.756c-0.084,1.596-0.168,3.023-0.168,3.779
				c0,0.588,0.336,1.008,0.84,1.008c2.603-1.848,5.374-4.367,8.229-4.367c2.939,0,4.618,1.932,4.618,4.115
				c0,3.274-2.435,4.869-4.702,4.869c-0.84,0-1.596-0.251-2.267-0.671c-2.1-1.428-3.527-1.596-4.031-1.596
				c-1.931,0-2.435,1.932-2.435,6.046v11.504c0,6.213,0.336,7.137,3.275,7.473l3.274,0.336c0.588,0.588,0.504,2.101-0.167,2.437
				c-5.039-0.168-7.894-0.252-11-0.252c-2.771,0-5.542,0.084-8.733,0.252c-0.672-0.336-0.756-1.849-0.168-2.437l1.511-0.252
				c2.855-0.504,3.191-1.344,3.191-7.557V42.244L156.673,42.244z"/>
			<path d="M204.366,53.916c-0.252,4.869,1.078,7.924,3.841,6.692c1.304-0.58,2.303-1.565,2.535-1.668
				c0.383-0.172,1.781,0.543,1.373,1.227c-1.667,2.791-5.901,5.589-8.504,5.589c-2.1,0-4.451-0.588-6.046-2.353
				c-0.588-0.588-0.924-1.008-1.344-1.008c-0.42,0-1.007,0.42-2.267,1.177c-1.595,1.008-4.114,2.184-7.137,2.184
				c-5.71,0-8.565-3.946-8.565-8.146c0-3.021,1.176-5.793,6.969-7.81c2.939-1.008,6.13-2.184,9.237-3.358
				c1.679-0.588,1.931-1.342,1.931-2.183l0.084-2.184c0.168-4.282-1.007-7.978-5.122-7.978c-2.351,0-4.114,1.26-4.45,3.694
				c-0.168,1.595-0.672,2.435-1.596,3.022c-1.175,0.756-3.526,1.512-5.374,1.512c-1.091,0-1.595-0.588-1.595-1.344
				c0-1.008,0.504-2.771,3.275-5.373c2.603-2.437,8.649-5.292,12.931-5.292c6.633,0,10.748,3.107,10.412,10.497L204.366,53.916z
				 M196.137,51.062c0-0.924-0.252-1.429-0.671-1.429c-0.672,0-2.184,0.42-3.695,1.009c-2.351,0.84-4.534,2.016-4.534,5.627
				c0,2.182,1.511,4.869,4.702,4.869c3.023,0,3.946-2.017,4.03-4.031L196.137,51.062z"/>
			<path d="M215.7,18.565c0-5.626-0.084-6.13-2.184-7.473l-0.923-0.588c-0.504-0.336-0.588-1.679,0-1.931
				c3.275-0.924,7.641-2.688,11-4.031c0.503-0.084,1.007,0.252,1.175,0.672c-0.168,3.359-0.252,8.565-0.252,12.176v37.198
				c0,6.213,0.336,7.138,3.191,7.558l1.847,0.252c0.588,0.588,0.504,2.1-0.168,2.436c-3.442-0.168-6.297-0.252-9.404-0.252
				c-2.771,0-5.626,0.084-9.069,0.252c-0.671-0.336-0.755-1.848-0.168-2.436l1.764-0.252c2.855-0.42,3.191-1.345,3.191-7.558V18.565
				L215.7,18.565z"/>
		</g>
		<g>
			<path fill="#FFFFFF" d="M52.493,21.267c-0.587,0.672-2.099,0.756-2.687,0.168c-1.427-5.29-5.206-12.259-16.29-12.259
				c-10.664,0-21.412,7.557-21.412,24.771c0,17.885,11.168,26.618,22,26.618c10.58,0,15.199-7.053,17.55-12.513
				c0.755-0.756,2.099-0.42,2.519,0.337c-0.588,5.627-2.855,11.168-4.031,12.764c-1.007,0.168-2.015,0.504-2.939,0.756
				c-1.847,0.588-7.641,2.016-13.099,2.016c-8.313,0-15.45-1.68-21.496-5.627C5.806,53.849,0.684,46.205,0.684,35.206
				c0-9.824,4.366-17.465,10.58-22.252c6.213-4.702,14.694-7.137,23.175-7.137c4.786,0,10.58,0.84,14.527,1.847
				C49.974,7.916,50.562,8,51.317,8.168C51.485,10.1,51.653,15.054,52.493,21.267z"/>
			<path fill="#FFFFFF" d="M65.084,42.681c-1.595,0-1.763,0.084-1.763,1.092c0,7.557,5.206,13.602,12.679,13.602
				c3.359,0,6.13-1.092,8.061-4.197c0.84-0.252,1.764,0.588,1.848,1.344c-2.855,6.717-9.069,9.236-14.191,9.236
				c-9.74,0-16.206-7.223-16.206-16.795c0-9.488,6.466-18.64,17.717-18.64c6.214,0,12.596,4.03,12.596,11.335
				c0,0.756-0.084,1.26-0.42,1.932c-0.504,0.756-2.435,1.092-5.794,1.092H65.084L65.084,42.681z M72.81,39.32
				c2.435,0,3.526-0.252,4.114-0.588c0.504-0.336,0.84-1.008,0.84-1.763c0-3.023-1.932-5.458-5.542-5.458
				c-5.626,0-8.229,5.458-8.229,7.221c0,0.336,0.168,0.588,1.175,0.588H72.81z"/>
			<path fill="#FFFFFF" d="M100.097,52.588c0,6.213,0.336,7.222,3.191,7.642l1.259,0.168c0.588,0.588,0.504,2.1-0.168,2.436
				c-2.939-0.168-5.793-0.252-8.9-0.252c-2.687,0-5.542,0.084-9.069,0.252c-0.672-0.336-0.756-1.848-0.168-2.436l1.847-0.252
				c2.855-0.42,3.191-1.345,3.191-7.558V40.244c0-3.778,0-4.786-2.099-6.045l-1.008-0.588c-0.251-0.336-0.251-1.512,0.084-1.931
				c3.611-1.008,8.229-3.023,10.916-4.535c0.588,0,0.924,0.336,1.092,0.672c-0.168,1.595-0.168,3.191-0.168,3.863
				c0,0.587,0.252,0.755,0.756,0.839c3.946-2.183,6.297-4.198,11.503-4.198c6.802,0,9.993,4.702,9.993,11.251v13.016
				c0,6.213,0.336,7.222,3.191,7.558l1.931,0.252c0.588,0.588,0.504,2.1-0.168,2.436c-3.527-0.168-6.382-0.252-9.489-0.252
				c-2.771,0-5.626,0.084-8.564,0.252c-0.672-0.336-0.756-1.848-0.168-2.436l1.259-0.168c2.855-0.42,3.191-1.429,3.191-7.642V41
				c0-4.282-1.679-7.641-6.718-7.641c-2.603,0-4.702,1.343-5.542,2.603c-1.092,1.511-1.176,2.267-1.176,5.374L100.097,52.588
				L100.097,52.588z"/>
			<path fill="#FFFFFF" d="M140.231,33.191c-1.511,0-1.595,0.168-1.595,2.855v12.932c0,5.291,0.756,9.991,6.13,9.991
				c1.679,0,2.687-0.588,4.03-1.512c0.756,0.084,1.26,0.756,1.092,1.681c-1.679,2.352-5.542,4.618-10.664,4.618
				c-7.977,0-9.405-4.618-9.405-10.496V36.214c0-2.939-0.168-3.023-1.511-3.023h-2.939c-0.84-0.42-1.008-1.763-0.252-2.267
				c2.855-1.092,4.786-2.183,6.634-3.527c1.595-1.175,3.442-2.939,4.618-5.206c0.756-0.504,1.931-0.252,2.351,0.42v5.038
				c0,1.343,0,1.595,1.595,1.595h8.313c0.504,0.252,0.672,0.924,0.672,1.764c-0.084,1.007-0.42,1.763-1.091,2.183H140.231z"/>
			<path fill="#FFFFFF" d="M154.673,40.244c0-3.778,0-4.786-2.099-6.045l-1.008-0.588c-0.252-0.336-0.252-1.512,0.084-1.931
				c3.611-1.176,8.061-3.023,10.58-4.535c0.504,0,1.008,0.252,1.176,0.756c-0.084,1.595-0.168,3.023-0.168,3.779
				c0,0.587,0.336,1.007,0.84,1.007c2.603-1.847,5.374-4.366,8.229-4.366c2.939,0,4.618,1.931,4.618,4.114
				c0,3.275-2.435,4.87-4.702,4.87c-0.84,0-1.596-0.251-2.267-0.671c-2.1-1.428-3.527-1.596-4.031-1.596
				c-1.931,0-2.435,1.932-2.435,6.046v11.504c0,6.213,0.336,7.138,3.275,7.474l3.274,0.336c0.588,0.588,0.504,2.1-0.167,2.436
				c-5.039-0.168-7.894-0.252-11-0.252c-2.771,0-5.542,0.084-8.733,0.252c-0.672-0.336-0.756-1.848-0.168-2.436l1.511-0.252
				c2.855-0.504,3.191-1.345,3.191-7.558V40.244L154.673,40.244z"/>
			<path fill="#FFFFFF" d="M202.366,51.916c-0.252,4.869,1.078,7.924,3.841,6.692c1.304-0.58,2.303-1.565,2.535-1.668
				c0.383-0.172,1.781,0.543,1.373,1.227c-1.667,2.791-5.901,5.589-8.504,5.589c-2.1,0-4.451-0.588-6.046-2.353
				c-0.588-0.588-0.924-1.008-1.344-1.008c-0.42,0-1.007,0.42-2.267,1.177c-1.595,1.008-4.114,2.184-7.137,2.184
				c-5.71,0-8.565-3.946-8.565-8.146c0-3.021,1.176-5.793,6.969-7.81c2.939-1.008,6.13-2.184,9.237-3.358
				c1.679-0.588,1.931-1.342,1.931-2.183l0.084-2.184c0.168-4.282-1.007-7.977-5.122-7.977c-2.351,0-4.114,1.26-4.45,3.695
				c-0.168,1.595-0.672,2.435-1.596,3.022c-1.175,0.756-3.526,1.512-5.374,1.512c-1.091,0-1.595-0.588-1.595-1.344
				c0-1.008,0.504-2.771,3.275-5.374c2.603-2.435,8.649-5.29,12.931-5.29c6.633,0,10.748,3.107,10.412,10.496L202.366,51.916z
				 M194.137,49.062c0-0.924-0.252-1.429-0.671-1.429c-0.672,0-2.184,0.42-3.695,1.009c-2.351,0.84-4.534,2.016-4.534,5.627
				c0,2.182,1.511,4.869,4.702,4.869c3.023,0,3.946-2.017,4.03-4.031L194.137,49.062z"/>
			<path fill="#FFFFFF" d="M213.7,16.565c0-5.626-0.084-6.13-2.184-7.473l-0.923-0.588c-0.504-0.336-0.588-1.679,0-1.931
				c3.275-0.924,7.641-2.688,11-4.031c0.503-0.084,1.007,0.252,1.175,0.672c-0.168,3.359-0.252,8.565-0.252,12.176v37.198
				c0,6.213,0.336,7.138,3.191,7.558l1.847,0.252c0.588,0.588,0.504,2.1-0.168,2.436c-3.442-0.168-6.297-0.252-9.404-0.252
				c-2.771,0-5.626,0.084-9.069,0.252c-0.671-0.336-0.755-1.848-0.168-2.436l1.764-0.252c2.855-0.42,3.191-1.345,3.191-7.558V16.565
				L213.7,16.565z"/>
		</g>
	</g>
</g>
</svg>
