<svg id="Layer_1" data-name="Layer 1" xmlns="http://www.w3.org/2000/svg" viewBox="0 0 144 17.79"><defs><style>.cls-1{fill:#c41230;}</style></defs><title>barryuniversity-red-cmyk</title><path class="cls-1" d="M153.3,213.56a3.2,3.2,0,0,0,1.82-3,3.34,3.34,0,0,0-1.31-2.78,4.66,4.66,0,0,0-2.9-.72H144.7v2.23h1.51v9.51H144.7v2.23h6.5a4.5,4.5,0,0,0,3.21-.94,3.93,3.93,0,0,0,1.31-3A3.73,3.73,0,0,0,153.3,213.56Zm-4.4-4.25h1.37a3.07,3.07,0,0,1,1.68.27,1.71,1.71,0,0,1,.1,2.72,2.86,2.86,0,0,1-1.8.35h-1.35v-3.35Zm3.39,9.06a3.47,3.47,0,0,1-1.94.35h-1.47v-3.88h1.49a3.15,3.15,0,0,1,1.94.41,1.89,1.89,0,0,1,.76,1.59A1.83,1.83,0,0,1,152.28,218.38Zm12.65-6.28a3.76,3.76,0,0,0-3.25-1.76,5.53,5.53,0,0,0-5.48,5.56,5.41,5.41,0,0,0,5.36,5.44,3.87,3.87,0,0,0,3.37-1.68v1.41h3.74v-2.23h-1.31v-6h1.31v-2.23h-3.74v1.49ZM161.77,219a3.15,3.15,0,0,1-3.11-3.11,3.18,3.18,0,0,1,3.15-3.23,3.14,3.14,0,0,1,3.15,3.11A3.19,3.19,0,0,1,161.77,219Zm14.79-8.52v2.45a3.18,3.18,0,0,0-2.06.76,2.92,2.92,0,0,0-.9,2.49v2.64H175v2.23h-5.09v-2.23h1.35v-6h-1.35v-2.23h3.56v1.78A3.48,3.48,0,0,1,176.56,210.49Zm7.37,0v2.45a3.18,3.18,0,0,0-2.06.76,2.92,2.92,0,0,0-.9,2.49v2.64h1.35v2.23h-5.09v-2.23h1.35v-6h-1.35v-2.23h3.56v1.78A3.48,3.48,0,0,1,183.93,210.49Zm7.22,0.12H196v2.23h-1.31l-4.05,9.81H192v2.23h-5.09v-2.23h1.31l0.7-1.72-3.17-8.08h-1.16v-2.23h4.72v2.23h-1l1.86,5.11,2-5.11h-1v-2.23Zm20.13-1.29h-1.51v6.93a4.79,4.79,0,0,1-1.27,3.68,5,5,0,0,1-8.69-3.76v-6.85H198.3v-2.23h5.44v2.23h-1.27v6.58a3.42,3.42,0,0,0,.41,2,2.26,2.26,0,0,0,1.92,1,2.23,2.23,0,0,0,1.8-.84,3.29,3.29,0,0,0,.51-2.09v-6.58h-1.27v-2.23h5.44v2.23Zm10.55,9.51h1.35v2.23H218.1v-2.23h1.35v-3.39a3,3,0,0,0-.41-1.88,2.28,2.28,0,0,0-1.84-.84,2.35,2.35,0,0,0-1.9.88,3.68,3.68,0,0,0-.45,2.19v3h1.35v2.23h-5.09v-2.23h1.35v-6h-1.35v-2.23h3.74v1.49a3.38,3.38,0,0,1,3.09-1.72,4.14,4.14,0,0,1,3,1.29,4,4,0,0,1,.88,3.07v4.09Zm5.6-9.22H225v-2.53h2.39v2.53Zm0,9.22h1.35v2.23h-5.11v-2.23H225v-6h-1.35v-2.23h3.74v8.22Zm12.07-6h-1.23L235,221.06h-2.51l-3.21-8.22H228v-2.23h4.87v2.23h-1.06l1.92,5.29h0l2.06-5.29h-1.12v-2.23h4.82v2.23Zm4.93-2.55a5.52,5.52,0,0,0,.06,11,5.37,5.37,0,0,0,4.93-3.35h-2.49a2.91,2.91,0,0,1-2.53,1.25,3.23,3.23,0,0,1-3.13-2.51h8.46l0.08-.84a5.46,5.46,0,0,0-1.47-3.92A5.6,5.6,0,0,0,244.43,210.29Zm-3.17,4.6a3.24,3.24,0,0,1,3.05-2.47,3.34,3.34,0,0,1,3.29,2.47h-6.34Zm15.27-4.4v2.45a3.18,3.18,0,0,0-2.06.76,2.92,2.92,0,0,0-.9,2.49v2.64h1.35v2.23h-5.09v-2.23h1.35v-6h-1.35v-2.23h3.56v1.78A3.48,3.48,0,0,1,256.53,210.49ZM265.3,218c0,2.11-1.78,3.29-3.74,3.29a3.4,3.4,0,0,1-2.7-1.14v0.86H257v-3h2.45a1.6,1.6,0,0,0,1.68,1.57,1.36,1.36,0,0,0,1.43-1.29c0-1-1-1.21-1.78-1.43-1.82-.47-3.82-1-3.82-3.33a3.26,3.26,0,0,1,3.54-3.15,2.79,2.79,0,0,1,2.37.94v-0.72h1.76v2.84h-2.31a1.28,1.28,0,0,0-1.35-1.23,1.2,1.2,0,0,0-1.33,1.1c0,1,1,1.19,1.72,1.37C263.29,215.11,265.3,215.7,265.3,218Zm4.39,0.78H271v2.23h-5.11v-2.23h1.37v-6h-1.35v-2.23h3.74v8.22Zm0-9.22H267.3v-2.53h2.39v2.53Zm5.23,9.22h1.9v2.23h-4.29v-8.22h-1.64v-2.23h1.64v-3.52h2.39v3.52h1.78v2.23h-1.78v6Zm13.79-8.22v2.23h-1.31l-4.05,9.81h1.37v2.23h-5.09v-2.23h1.31l0.7-1.72-3.17-8.08h-1.37v-2.23H282v2.23h-1l1.86,5.11,2-5.11h-1v-2.23h4.87Z" transform="translate(-144.7 -207.08)"/></svg>